<?xml version="1.0" encoding="utf-8"?>
<!-- Generator: Adobe Illustrator 24.1.3, SVG Export Plug-In . SVG Version: 6.00 Build 0)  -->
<svg xmlns:xlink="http://www.w3.org/1999/xlink" version="1.1" id="Layer_1" xmlns="http://www.w3.org/2000/svg" x="0px"
     y="0px"
     viewBox="0 0 1280 675" style="enable-background:new 0 0 1280 675;" xml:space="preserve">
<style type="text/css">
	.st0{clip-path:url(#SVGID_2_);}
	.st1{clip-path:url(#SVGID_4_);}
	.st2{fill-rule:evenodd;clip-rule:evenodd;fill:#E8EAEC;}
	.st3{fill-rule:evenodd;clip-rule:evenodd;fill:#D2D6DC;filter:url(#Adobe_OpacityMaskFilter);}
	.st4{mask:url(#mask0_1_);}
	.st5{fill:none;stroke:#DDE0E4;stroke-width:4;}
	.st6{clip-path:url(#SVGID_8_);}
	.st7{fill:#F3F4F5;}
	.st8{fill:#E8EAEC;}
	.st9{fill:#DDE0E4;filter:url(#Adobe_OpacityMaskFilter_1_);}
	.st10{fill:#DDE0E4;}
	.st11{mask:url(#mask1_8_);}
	.st12{fill-rule:evenodd;clip-rule:evenodd;fill:#F3F4F5;}
</style>
    <g>
	<defs>
		<rect id="SVGID_1_" y="0" width="1280" height="675"/>
	</defs>
        <clipPath id="SVGID_2_">
		<use xlink:href="#SVGID_1_" style="overflow:visible;"/>
	</clipPath>
        <g class="st0">
		<g>
			<defs>
				<rect id="SVGID_3_" y="9" width="1280" height="666"/>
			</defs>
            <clipPath id="SVGID_4_">
				<use xlink:href="#SVGID_3_" style="overflow:visible;"/>
			</clipPath>
            <g class="st1">
				<path class="st2" d="M379.5,375.7l40.6,30.3l6,24l52.6,25.4l-30,61.7l-30,4.6l-4.6,24l-61.8,52.8l-28.6,54l21.2,22.6l-34.6-8.9
					L298,635.9l34.6-139.7L304,470.5l-13.4-54l16.3-26.6l-14.9,2.3l-20.9-26.8l-18.3-9.1l-42-15.1l-34.6-54L155,248v-52.5
					l-34.6-58.5l-43.8-27.1l-26.9,14.9L0,148.9l31.7-25.7L12,118.7L4.6,93.2L27.2,75L4.6,72.1l4.3-16.6h16.9L10.6,33L51.2,9
					L125,49.6l27.2-25.4l58.6,34.6l113-12.3v57.4l-45.2,8.9l-9.2,24.3l43.8,46.6l10.6-1.7l7.4-58.5l28.6-1.4l12,32.8l15.2-8.9
					l33.2,73.7l-46.6,21.1L337.2,260l-28.6,39.1v19.4l-10.6,1.7l-7.4-21.1l-40.6,6l-9.2,25.7l10.6,14.9l15.2-12l14.9,1.4l-7.4,21.4
					l18,1.4l6,22.3l12.3,4l8.9-14.6L379.5,375.7z M1135.9,442l3.2-25.4l16.6,30.6l26.6,26.6l-9.7,53.1l-17.7,10.9l-24.9-7.1
					l-5.7-17.7l-9.2,4.9l-18.6-10.9l-48.3,12l-11.7-6.9l2.9-8.9l-8-44.3l32.6-11.7l30.9-28.8l23.5,2.3l-3.7,13.7L1135.9,442z
					 M1019.5,391.7l25.7,5.1l11.7-36.6l-6.9-6l-34.6,21.7L1019.5,391.7z M1159.6,399.7l8.9,18.6l-21.7-13.7l-6.6,6l-15.2-0.9
					l-26.6-27.7l20.6-2L1159.6,399.7z M1146.7,158.4h-6.9l-1.2,35.4l-17.7,37.4l-22.6,16.8l-1.1,14.6l41.5-24.6l2-25.7l14-12.6
					l-10.9-9.1l5.7-20.6L1146.7,158.4z M1209.7,543.6l-2.9-27.7l14.9,12l8.6,0.9l-13.7,18.8l-17.7,26.6l-19.7-2L1209.7,543.6z
					 M593.7,101.2v28.8l20-8.9l5.7-8.9L597.7,71l-12.6,8.9L586,91l-12,14.3l-0.9,15.1h14.3L593.7,101.2z M773.5,471.4l0.9-32
					l21.4-16.9l3.1,16l-12.6,38.3L773.5,471.4z M1244.5,99.2l35.5-19.7l-9.7-27.7l-262-36.8c0,0-158.7,16.8-246.2,26l-75.8-14
					L656,43.8l-12,29.4l-14.3,11.1l-0.9,24.6l8,4.9l16.6-9.4l8,25.4l14.3-5.4l9.7-25.7l-9.7-10.3l8.9-19.1l10.3-12.9l6.3,1.1
					l-5.7,14.9l-6.9,4.9l2.6,6l-0.6,1.1l0.9,0.3l6,14.3l16.9-4.9l5.7,6.9l-18.6,6l4,15.1l-12-4l-8.9,22.3l-31.2-0.9l-5.7-16
					l-7.2,9.7l2.3,10.3l-11.2,0.9L618,162.6l-24.9,8l6.6,13.4l10.3,16.9l-32.6-2.3l1.7,32l25.5,4l16.6-26.3l24-12l10.3,12l14.3,19.1
					l10.6-12l-20-13.4l-0.9-12.9l9.4,4.9l16,12.9l-0.9,12.9l12,15.1l5.7-19.1l6.6,3.1l8.6,15.1l27.2,4.6l-4.3,14.9l-10.3,6
					l-38.6-10.6l-10,13.7l-25.7-16.8l-4-16.6L588,240l-32.6,39.4l-6,53.1l33.7,32.6l60.1-4l17.7,55.1l-6.9,31.4l28.6,68.8l32.6-6
					l32.6-61.1l17.7-13.7l-4.9-42.3l31.5-28.6l9.7-34.6l-31.5,14.9l-31.7-73.4l6.6-1.1l31.5,62.3l61.2-36.6l-20.6-15.7l-15.7,8
					l-9.7-23.7l6.9-4l13.7,11.7l47.5,8.9l19.7,23.7l17.7,44.3l13.7-13.7v-16.9l38.6-26.6l13.7,29.7l11.4-2.9l2.3,29.4l12,21.7
					l-25.7-12.9L982,384l20.6,19.7l49.5,8.9l-26.6-10.9l-19.7-6.9l-6.9-31.4l-15.7-17.7l0.6-17.7l18,18.8l17.7-14.9l-16.9-24.6
					l7.7-12.9l36.6-2l16.9-30.6l-11.7-33.4l14.9-15.7l10.9,14.9l4,18.8l12.9-6.9l-4.9-20.8l10.9-15.7l17.7-2.9l20.6-57.1l-17.7-12.9
					l24.6-23.7l32.6,2l26.6-21.7l20.6-2.9l-33.5,40.6l1.1,35.4l25.7-31.4l-0.9-22.8L1244.5,99.2z M761.5,216.9l-17.4-4.9l-24,4
					l-5.7-10.3l12.9-22.3l41.5,21.7L761.5,216.9z M790.4,230.3l4-15.1l-8.9-22.3l24.9-13.7v12l-9.7,4l8,12l4,24.8L790.4,230.3z
					 M432.7,32.1l22.3,6l19.2,32.6l8,16.6l-11.7,22l-0.6,11.4l-11.4,6.9l-1.1,30l-16.9-4.3l-35.2-92L432.7,32.1z"/>
                <defs>
					<filter id="Adobe_OpacityMaskFilter" filterUnits="userSpaceOnUse" x="-413.1" y="-106.1"
                            width="1973.3" height="786.8">
						<feColorMatrix type="matrix" values="1 0 0 0 0  0 1 0 0 0  0 0 1 0 0  0 0 0 1 0"/>
					</filter>
				</defs>
                <mask maskUnits="userSpaceOnUse" x="-413.1" y="-106.1" width="1973.3" height="786.8" id="mask0_1_">
					<path class="st3" d="M379.5,375.7l40.6,30.3l6,24l52.6,25.4l-30,61.7l-30,4.6l-4.6,24l-61.8,52.8l-28.6,54l21.2,22.6l-34.6-8.9
						L298,635.9l34.6-139.7L304,470.5l-13.4-54l16.3-26.6l-14.9,2.3l-20.9-26.8l-18.3-9.1l-42-15.1l-34.6-54L155,248v-52.5
						l-34.6-58.5l-43.8-27.1l-26.9,14.9L0,148.9l31.7-25.7L12,118.7L4.6,93.2L27.2,75L4.6,72.1l4.3-16.6h16.9L10.6,33L51.2,9
						L125,49.6l27.2-25.4l58.6,34.6l113-12.3v57.4l-45.2,8.9l-9.2,24.3l43.8,46.6l10.6-1.7l7.4-58.5l28.6-1.4l12,32.8l15.2-8.9
						l33.2,73.7l-46.6,21.1L337.2,260l-28.6,39.1v19.4l-10.6,1.7l-7.4-21.1l-40.6,6l-9.2,25.7l10.6,14.9l15.2-12l14.9,1.4l-7.4,21.4
						l18,1.4l6,22.3l12.3,4l8.9-14.6L379.5,375.7z M1135.9,442l3.2-25.4l16.6,30.6l26.6,26.6l-9.7,53.1l-17.7,10.9l-24.9-7.1
						l-5.7-17.7l-9.2,4.9l-18.6-10.9l-48.3,12l-11.7-6.9l2.9-8.9l-8-44.3l32.6-11.7l30.9-28.8l23.5,2.3l-3.7,13.7L1135.9,442z
						 M1019.5,391.7l25.7,5.1l11.7-36.6l-6.9-6l-34.6,21.7L1019.5,391.7z M1159.6,399.7l8.9,18.6l-21.7-13.7l-6.6,6l-15.2-0.9
						l-26.6-27.7l20.6-2L1159.6,399.7z M1146.7,158.4h-6.9l-1.2,35.4l-17.7,37.4l-22.6,16.8l-1.1,14.6l41.5-24.6l2-25.7l14-12.6
						l-10.9-9.1l5.7-20.6L1146.7,158.4z M1209.7,543.6l-2.9-27.7l14.9,12l8.6,0.9l-13.7,18.8l-17.7,26.6l-19.7-2L1209.7,543.6z
						 M593.7,101.2v28.8l20-8.9l5.7-8.9L597.7,71l-12.6,8.9L586,91l-12,14.3l-0.9,15.1h14.3L593.7,101.2z M773.5,471.4l0.9-32
						l21.4-16.9l3.1,16l-12.6,38.3L773.5,471.4z M1244.5,99.2l35.5-19.7l-9.7-27.7l-262-36.8c0,0-158.7,16.8-246.2,26l-75.8-14
						L656,43.8l-12,29.4l-14.3,11.1l-0.9,24.6l8,4.9l16.6-9.4l8,25.4l14.3-5.4l9.7-25.7l-9.7-10.3l8.9-19.1l10.3-12.9l6.3,1.1
						l-5.7,14.9l-6.9,4.9l2.6,6l-0.6,1.1l0.9,0.3l6,14.3l16.9-4.9l5.7,6.9l-18.6,6l4,15.1l-12-4l-8.9,22.3l-31.2-0.9l-5.7-16
						l-7.2,9.7l2.3,10.3l-11.2,0.9L618,162.6l-24.9,8l6.6,13.4l10.3,16.9l-32.6-2.3l1.7,32l25.5,4l16.6-26.3l24-12l10.3,12
						l14.3,19.1l10.6-12l-20-13.4l-0.9-12.9l9.4,4.9l16,12.9l-0.9,12.9l12,15.1l5.7-19.1l6.6,3.1l8.6,15.1l27.2,4.6l-4.3,14.9
						l-10.3,6l-38.6-10.6l-10,13.7l-25.7-16.8l-4-16.6L588,240l-32.6,39.4l-6,53.1l33.7,32.6l60.1-4l17.7,55.1l-6.9,31.4l28.6,68.8
						l32.6-6l32.6-61.1l17.7-13.7l-4.9-42.3l31.5-28.6l9.7-34.6l-31.5,14.9l-31.7-73.4l6.6-1.1l31.5,62.3l61.2-36.6l-20.6-15.7
						l-15.7,8l-9.7-23.7l6.9-4l13.7,11.7l47.5,8.9l19.7,23.7l17.7,44.3l13.7-13.7v-16.9l38.6-26.6l13.7,29.7l11.4-2.9l2.3,29.4
						l12,21.7l-25.7-12.9L982,384l20.6,19.7l49.5,8.9l-26.6-10.9l-19.7-6.9l-6.9-31.4l-15.7-17.7l0.6-17.7l18,18.8l17.7-14.9
						l-16.9-24.6l7.7-12.9l36.6-2l16.9-30.6l-11.7-33.4l14.9-15.7l10.9,14.9l4,18.8l12.9-6.9l-4.9-20.8l10.9-15.7l17.7-2.9
						l20.6-57.1l-17.7-12.9l24.6-23.7l32.6,2l26.6-21.7l20.6-2.9l-33.5,40.6l1.1,35.4l25.7-31.4l-0.9-22.8L1244.5,99.2z
						 M761.5,216.9l-17.4-4.9l-24,4l-5.7-10.3l12.9-22.3l41.5,21.7L761.5,216.9z M790.4,230.3l4-15.1l-8.9-22.3l24.9-13.7v12l-9.7,4
						l8,12l4,24.8L790.4,230.3z M432.7,32.1l22.3,6l19.2,32.6l8,16.6l-11.7,22l-0.6,11.4l-11.4,6.9l-1.1,30l-16.9-4.3l-35.2-92
						L432.7,32.1z"/>
				</mask>
                <g class="st4">
					<line class="st5" x1="970.6" y1="3.9" x2="554.6" y2="679.6"/>
                    <line class="st5" x1="1031.6" y1="-105.1" x2="615.6" y2="570.6"/>
                    <line class="st5" x1="976.6" y1="3.9" x2="560.6" y2="679.6"/>
                    <line class="st5" x1="1054.6" y1="3.9" x2="638.6" y2="679.6"/>
                    <line class="st5" x1="1060.6" y1="3.9" x2="644.6" y2="679.6"/>
                    <line class="st5" x1="1078.6" y1="3.9" x2="662.6" y2="679.6"/>
                    <line class="st5" x1="1096.6" y1="3.9" x2="680.6" y2="679.6"/>
                    <line class="st5" x1="1114.6" y1="3.9" x2="698.6" y2="679.6"/>
                    <line class="st5" x1="1132.6" y1="3.9" x2="716.6" y2="679.6"/>
                    <line class="st5" x1="1138.6" y1="3.9" x2="722.6" y2="679.6"/>
                    <line class="st5" x1="1162.6" y1="3.9" x2="746.6" y2="679.6"/>
                    <line class="st5" x1="1192.6" y1="3.9" x2="776.6" y2="679.6"/>
                    <line class="st5" x1="1222.6" y1="3.9" x2="806.6" y2="679.6"/>
                    <line class="st5" x1="1258.6" y1="3.9" x2="842.6" y2="679.6"/>
                    <line class="st5" x1="1282.6" y1="3.9" x2="866.6" y2="679.6"/>
                    <line class="st5" x1="1312.6" y1="3.9" x2="896.6" y2="679.6"/>
                    <line class="st5" x1="1342.6" y1="3.9" x2="926.6" y2="679.6"/>
                    <line class="st5" x1="1072.6" y1="3.9" x2="656.6" y2="679.6"/>
                    <line class="st5" x1="1090.6" y1="3.9" x2="674.6" y2="679.6"/>
                    <line class="st5" x1="1108.6" y1="3.9" x2="692.6" y2="679.6"/>
                    <line class="st5" x1="1126.6" y1="3.9" x2="710.6" y2="679.6"/>
                    <line class="st5" x1="1156.6" y1="3.9" x2="740.6" y2="679.6"/>
                    <line class="st5" x1="1186.6" y1="3.9" x2="770.6" y2="679.6"/>
                    <line class="st5" x1="1216.6" y1="3.9" x2="800.6" y2="679.6"/>
                    <line class="st5" x1="1246.6" y1="3.9" x2="830.6" y2="679.6"/>
                    <line class="st5" x1="1066.6" y1="3.9" x2="650.6" y2="679.6"/>
                    <line class="st5" x1="1084.6" y1="3.9" x2="668.6" y2="679.6"/>
                    <line class="st5" x1="1102.6" y1="3.9" x2="686.6" y2="679.6"/>
                    <line class="st5" x1="1120.6" y1="3.9" x2="704.6" y2="679.6"/>
                    <line class="st5" x1="1150.6" y1="3.9" x2="734.6" y2="679.6"/>
                    <line class="st5" x1="1174.6" y1="3.9" x2="758.6" y2="679.6"/>
                    <line class="st5" x1="1204.6" y1="3.9" x2="788.6" y2="679.6"/>
                    <line class="st5" x1="1234.6" y1="3.9" x2="818.6" y2="679.6"/>
                    <line class="st5" x1="1252.6" y1="3.9" x2="836.6" y2="679.6"/>
                    <line class="st5" x1="1276.6" y1="3.9" x2="860.6" y2="679.6"/>
                    <line class="st5" x1="1300.6" y1="3.9" x2="884.6" y2="679.6"/>
                    <line class="st5" x1="1330.6" y1="3.9" x2="914.6" y2="679.6"/>
                    <line class="st5" x1="1390.6" y1="3.9" x2="974.6" y2="679.6"/>
                    <line class="st5" x1="1444.6" y1="3.9" x2="1028.6" y2="679.6"/>
                    <line class="st5" x1="1492.6" y1="3.9" x2="1076.6" y2="679.6"/>
                    <line class="st5" x1="1522.6" y1="3.9" x2="1106.6" y2="679.6"/>
                    <line class="st5" x1="1144.6" y1="3.9" x2="728.6" y2="679.6"/>
                    <line class="st5" x1="1168.6" y1="3.9" x2="752.6" y2="679.6"/>
                    <line class="st5" x1="1198.6" y1="3.9" x2="782.6" y2="679.6"/>
                    <line class="st5" x1="1228.6" y1="3.9" x2="812.6" y2="679.6"/>
                    <line class="st5" x1="1264.6" y1="3.9" x2="848.6" y2="679.6"/>
                    <line class="st5" x1="1288.6" y1="3.9" x2="872.6" y2="679.6"/>
                    <line class="st5" x1="1318.6" y1="3.9" x2="902.6" y2="679.6"/>
                    <line class="st5" x1="1354.6" y1="3.9" x2="938.6" y2="679.6"/>
                    <line class="st5" x1="1180.6" y1="3.9" x2="764.6" y2="679.6"/>
                    <line class="st5" x1="1210.6" y1="3.9" x2="794.6" y2="679.6"/>
                    <line class="st5" x1="1240.6" y1="3.9" x2="824.6" y2="679.6"/>
                    <line class="st5" x1="1270.6" y1="3.9" x2="854.6" y2="679.6"/>
                    <line class="st5" x1="1306.6" y1="3.9" x2="890.6" y2="679.6"/>
                    <line class="st5" x1="1336.6" y1="3.9" x2="920.6" y2="679.6"/>
                    <line class="st5" x1="1378.6" y1="3.9" x2="962.6" y2="679.6"/>
                    <line class="st5" x1="1432.6" y1="3.9" x2="1016.6" y2="679.6"/>
                    <line class="st5" x1="1456.6" y1="3.9" x2="1040.6" y2="679.6"/>
                    <line class="st5" x1="1504.6" y1="3.9" x2="1088.6" y2="679.6"/>
                    <line class="st5" x1="1528.6" y1="3.9" x2="1112.6" y2="679.6"/>
                    <line class="st5" x1="1546.6" y1="3.9" x2="1130.6" y2="679.6"/>
                    <line class="st5" x1="1294.6" y1="3.9" x2="878.6" y2="679.6"/>
                    <line class="st5" x1="1324.6" y1="3.9" x2="908.6" y2="679.6"/>
                    <line class="st5" x1="1366.6" y1="3.9" x2="950.6" y2="679.6"/>
                    <line class="st5" x1="1408.6" y1="3.9" x2="992.6" y2="679.6"/>
                    <line class="st5" x1="1480.6" y1="3.9" x2="1064.6" y2="679.6"/>
                    <line class="st5" x1="1516.6" y1="3.9" x2="1100.6" y2="679.6"/>
                    <line class="st5" x1="1540.6" y1="3.9" x2="1124.6" y2="679.6"/>
                    <line class="st5" x1="1558.6" y1="3.9" x2="1142.6" y2="679.6"/>
                    <line class="st5" x1="1420.6" y1="3.9" x2="1004.6" y2="679.6"/>
                    <line class="st5" x1="1468.6" y1="3.9" x2="1052.6" y2="679.6"/>
                    <line class="st5" x1="1510.6" y1="3.9" x2="1094.6" y2="679.6"/>
                    <line class="st5" x1="1534.6" y1="3.9" x2="1118.6" y2="679.6"/>
                    <line class="st5" x1="1402.6" y1="3.9" x2="986.6" y2="679.6"/>
                    <line class="st5" x1="1426.6" y1="3.9" x2="1010.6" y2="679.6"/>
                    <line class="st5" x1="1552.6" y1="3.9" x2="1136.6" y2="679.6"/>
                    <line class="st5" x1="1414.6" y1="3.9" x2="998.6" y2="679.6"/>
                    <line class="st5" x1="1450.6" y1="3.9" x2="1034.6" y2="679.6"/>
                    <line class="st5" x1="1474.6" y1="3.9" x2="1058.6" y2="679.6"/>
                    <line class="st5" x1="1498.6" y1="3.9" x2="1082.6" y2="679.6"/>
                    <line class="st5" x1="1360.6" y1="3.9" x2="944.6" y2="679.6"/>
                    <line class="st5" x1="1372.6" y1="3.9" x2="956.6" y2="679.6"/>
                    <line class="st5" x1="1384.6" y1="3.9" x2="968.6" y2="679.6"/>
                    <line class="st5" x1="1396.6" y1="3.9" x2="980.6" y2="679.6"/>
                    <line class="st5" x1="1438.6" y1="3.9" x2="1022.6" y2="679.6"/>
                    <line class="st5" x1="1462.6" y1="3.9" x2="1046.6" y2="679.6"/>
                    <line class="st5" x1="1486.6" y1="3.9" x2="1070.6" y2="679.6"/>
                    <line class="st5" x1="1348.6" y1="3.9" x2="932.6" y2="679.6"/>
                    <line class="st5" x1="22.6" y1="3.9" x2="-393.4" y2="679.6"/>
                    <line class="st5" x1="52.6" y1="3.9" x2="-363.4" y2="679.6"/>
                    <line class="st5" x1="88.6" y1="3.9" x2="-327.4" y2="679.6"/>
                    <line class="st5" x1="112.6" y1="3.9" x2="-303.4" y2="679.6"/>
                    <line class="st5" x1="142.6" y1="3.9" x2="-273.4" y2="679.6"/>
                    <line class="st5" x1="172.6" y1="3.9" x2="-243.4" y2="679.6"/>
                    <line class="st5" x1="16.6" y1="3.9" x2="-399.4" y2="679.6"/>
                    <line class="st5" x1="46.6" y1="3.9" x2="-369.4" y2="679.6"/>
                    <line class="st5" x1="76.6" y1="3.9" x2="-339.4" y2="679.6"/>
                    <line class="st5" x1="4.6" y1="3.9" x2="-411.4" y2="679.6"/>
                    <line class="st5" x1="34.6" y1="3.9" x2="-381.4" y2="679.6"/>
                    <line class="st5" x1="64.6" y1="3.9" x2="-351.4" y2="679.6"/>
                    <line class="st5" x1="82.6" y1="3.9" x2="-333.4" y2="679.6"/>
                    <line class="st5" x1="106.6" y1="3.9" x2="-309.4" y2="679.6"/>
                    <line class="st5" x1="130.6" y1="3.9" x2="-285.4" y2="679.6"/>
                    <line class="st5" x1="160.6" y1="3.9" x2="-255.4" y2="679.6"/>
                    <line class="st5" x1="220.6" y1="3.9" x2="-195.4" y2="679.6"/>
                    <line class="st5" x1="268.6" y1="3.9" x2="-147.4" y2="679.6"/>
                    <line class="st5" x1="316.6" y1="3.9" x2="-99.4" y2="679.6"/>
                    <line class="st5" x1="364.6" y1="3.9" x2="-51.4" y2="679.6"/>
                    <line class="st5" x1="28.6" y1="3.9" x2="-387.4" y2="679.6"/>
                    <line class="st5" x1="58.6" y1="3.9" x2="-357.4" y2="679.6"/>
                    <line class="st5" x1="94.6" y1="3.9" x2="-321.4" y2="679.6"/>
                    <line class="st5" x1="118.6" y1="3.9" x2="-297.4" y2="679.6"/>
                    <line class="st5" x1="148.6" y1="3.9" x2="-267.4" y2="679.6"/>
                    <line class="st5" x1="184.6" y1="3.9" x2="-231.4" y2="679.6"/>
                    <line class="st5" x1="10.6" y1="3.9" x2="-405.4" y2="679.6"/>
                    <line class="st5" x1="40.6" y1="3.9" x2="-375.4" y2="679.6"/>
                    <line class="st5" x1="70.6" y1="3.9" x2="-345.4" y2="679.6"/>
                    <line class="st5" x1="100.6" y1="3.9" x2="-315.4" y2="679.6"/>
                    <line class="st5" x1="136.6" y1="3.9" x2="-279.4" y2="679.6"/>
                    <line class="st5" x1="166.6" y1="3.9" x2="-249.4" y2="679.6"/>
                    <line class="st5" x1="208.6" y1="3.9" x2="-207.4" y2="679.6"/>
                    <line class="st5" x1="256.6" y1="3.9" x2="-159.4" y2="679.6"/>
                    <line class="st5" x1="280.6" y1="3.9" x2="-135.4" y2="679.6"/>
                    <line class="st5" x1="328.6" y1="3.9" x2="-87.4" y2="679.6"/>
                    <line class="st5" x1="376.6" y1="3.9" x2="-39.4" y2="679.6"/>
                    <line class="st5" x1="406.6" y1="3.9" x2="-9.4" y2="679.6"/>
                    <line class="st5" x1="430.6" y1="3.9" x2="14.6" y2="679.6"/>
                    <line class="st5" x1="448.6" y1="3.9" x2="32.6" y2="679.6"/>
                    <line class="st5" x1="472.6" y1="3.9" x2="56.6" y2="679.6"/>
                    <line class="st5" x1="502.6" y1="3.9" x2="86.6" y2="679.6"/>
                    <line class="st5" x1="124.6" y1="3.9" x2="-291.4" y2="679.6"/>
                    <line class="st5" x1="154.6" y1="3.9" x2="-261.4" y2="679.6"/>
                    <line class="st5" x1="196.6" y1="3.9" x2="-219.4" y2="679.6"/>
                    <line class="st5" x1="232.6" y1="3.9" x2="-183.4" y2="679.6"/>
                    <line class="st5" x1="304.6" y1="3.9" x2="-111.4" y2="679.6"/>
                    <line class="st5" x1="352.6" y1="3.9" x2="-63.4" y2="679.6"/>
                    <line class="st5" x1="400.6" y1="3.9" x2="-15.4" y2="679.6"/>
                    <line class="st5" x1="418.6" y1="3.9" x2="2.6" y2="679.6"/>
                    <line class="st5" x1="244.6" y1="3.9" x2="-171.4" y2="679.6"/>
                    <line class="st5" x1="292.6" y1="3.9" x2="-123.4" y2="679.6"/>
                    <line class="st5" x1="340.6" y1="3.9" x2="-75.4" y2="679.6"/>
                    <line class="st5" x1="388.6" y1="3.9" x2="-27.4" y2="679.6"/>
                    <line class="st5" x1="424.6" y1="3.9" x2="8.6" y2="679.6"/>
                    <line class="st5" x1="442.6" y1="3.9" x2="26.6" y2="679.6"/>
                    <line class="st5" x1="460.6" y1="3.9" x2="44.6" y2="679.6"/>
                    <line class="st5" x1="484.6" y1="3.9" x2="68.6" y2="679.6"/>
                    <line class="st5" x1="496.6" y1="3.9" x2="80.6" y2="679.6"/>
                    <line class="st5" x1="520.6" y1="3.9" x2="104.6" y2="679.6"/>
                    <line class="st5" x1="538.6" y1="3.9" x2="122.6" y2="679.6"/>
                    <line class="st5" x1="550.6" y1="3.9" x2="134.6" y2="679.6"/>
                    <line class="st5" x1="610.6" y1="3.9" x2="194.6" y2="679.6"/>
                    <line class="st5" x1="628.6" y1="3.9" x2="212.6" y2="679.6"/>
                    <line class="st5" x1="670.6" y1="3.9" x2="254.6" y2="679.6"/>
                    <line class="st5" x1="706.6" y1="3.9" x2="290.6" y2="679.6"/>
                    <line class="st5" x1="412.6" y1="3.9" x2="-3.4" y2="679.6"/>
                    <line class="st5" x1="436.6" y1="3.9" x2="20.6" y2="679.6"/>
                    <line class="st5" x1="178.6" y1="3.9" x2="-237.4" y2="679.6"/>
                    <line class="st5" x1="190.6" y1="3.9" x2="-225.4" y2="679.6"/>
                    <line class="st5" x1="202.6" y1="3.9" x2="-213.4" y2="679.6"/>
                    <line class="st5" x1="214.6" y1="3.9" x2="-201.4" y2="679.6"/>
                    <line class="st5" x1="250.6" y1="3.9" x2="-165.4" y2="679.6"/>
                    <line class="st5" x1="286.6" y1="3.9" x2="-129.4" y2="679.6"/>
                    <line class="st5" x1="322.6" y1="3.9" x2="-93.4" y2="679.6"/>
                    <line class="st5" x1="358.6" y1="3.9" x2="-57.4" y2="679.6"/>
                    <line class="st5" x1="370.6" y1="3.9" x2="-45.4" y2="679.6"/>
                    <line class="st5" x1="238.6" y1="3.9" x2="-177.4" y2="679.6"/>
                    <line class="st5" x1="274.6" y1="3.9" x2="-141.4" y2="679.6"/>
                    <line class="st5" x1="310.6" y1="3.9" x2="-105.4" y2="679.6"/>
                    <line class="st5" x1="346.6" y1="3.9" x2="-69.4" y2="679.6"/>
                    <line class="st5" x1="226.6" y1="3.9" x2="-189.4" y2="679.6"/>
                    <line class="st5" x1="262.6" y1="3.9" x2="-153.4" y2="679.6"/>
                    <line class="st5" x1="298.6" y1="3.9" x2="-117.4" y2="679.6"/>
                    <line class="st5" x1="334.6" y1="3.9" x2="-81.4" y2="679.6"/>
                    <line class="st5" x1="394.6" y1="3.9" x2="-21.4" y2="679.6"/>
                    <line class="st5" x1="382.6" y1="3.9" x2="-33.4" y2="679.6"/>
                    <line class="st5" x1="454.6" y1="3.9" x2="38.6" y2="679.6"/>
                    <line class="st5" x1="478.6" y1="3.9" x2="62.6" y2="679.6"/>
                    <line class="st5" x1="508.6" y1="3.9" x2="92.6" y2="679.6"/>
                    <line class="st5" x1="526.6" y1="3.9" x2="110.6" y2="679.6"/>
                    <line class="st5" x1="544.6" y1="3.9" x2="128.6" y2="679.6"/>
                    <line class="st5" x1="568.6" y1="3.9" x2="152.6" y2="679.6"/>
                    <line class="st5" x1="466.6" y1="3.9" x2="50.6" y2="679.6"/>
                    <line class="st5" x1="490.6" y1="3.9" x2="74.6" y2="679.6"/>
                    <line class="st5" x1="514.6" y1="3.9" x2="98.6" y2="679.6"/>
                    <line class="st5" x1="532.6" y1="3.9" x2="116.6" y2="679.6"/>
                    <line class="st5" x1="562.6" y1="3.9" x2="146.6" y2="679.6"/>
                    <line class="st5" x1="580.6" y1="3.9" x2="164.6" y2="679.6"/>
                    <line class="st5" x1="622.6" y1="3.9" x2="206.6" y2="679.6"/>
                    <line class="st5" x1="664.6" y1="3.9" x2="248.6" y2="679.6"/>
                    <line class="st5" x1="700.6" y1="3.9" x2="284.6" y2="679.6"/>
                    <line class="st5" x1="742.6" y1="3.9" x2="326.6" y2="679.6"/>
                    <line class="st5" x1="814.6" y1="3.9" x2="398.6" y2="679.6"/>
                    <line class="st5" x1="826.6" y1="3.9" x2="410.6" y2="679.6"/>
                    <line class="st5" x1="874.6" y1="3.9" x2="458.6" y2="679.6"/>
                    <line class="st5" x1="880.6" y1="3.9" x2="464.6" y2="679.6"/>
                    <line class="st5" x1="922.6" y1="3.9" x2="506.6" y2="679.6"/>
                    <line class="st5" x1="928.6" y1="3.9" x2="512.6" y2="679.6"/>
                    <line class="st5" x1="556.6" y1="3.9" x2="140.6" y2="679.6"/>
                    <line class="st5" x1="574.6" y1="3.9" x2="158.6" y2="679.6"/>
                    <line class="st5" x1="616.6" y1="3.9" x2="200.6" y2="679.6"/>
                    <line class="st5" x1="634.6" y1="3.9" x2="218.6" y2="679.6"/>
                    <line class="st5" x1="736.6" y1="3.9" x2="320.6" y2="679.6"/>
                    <line class="st5" x1="808.6" y1="3.9" x2="392.6" y2="679.6"/>
                    <line class="st5" x1="820.6" y1="3.9" x2="404.6" y2="679.6"/>
                    <line class="st5" x1="832.6" y1="3.9" x2="416.6" y2="679.6"/>
                    <line class="st5" x1="586.6" y1="3.9" x2="170.6" y2="679.6"/>
                    <line class="st5" x1="640.6" y1="3.9" x2="224.6" y2="679.6"/>
                    <line class="st5" x1="676.6" y1="3.9" x2="260.6" y2="679.6"/>
                    <line class="st5" x1="712.6" y1="3.9" x2="296.6" y2="679.6"/>
                    <line class="st5" x1="748.6" y1="3.9" x2="332.6" y2="679.6"/>
                    <line class="st5" x1="592.6" y1="3.9" x2="176.6" y2="679.6"/>
                    <line class="st5" x1="646.6" y1="3.9" x2="230.6" y2="679.6"/>
                    <line class="st5" x1="682.6" y1="3.9" x2="266.6" y2="679.6"/>
                    <line class="st5" x1="718.6" y1="3.9" x2="302.6" y2="679.6"/>
                    <line class="st5" x1="754.6" y1="3.9" x2="338.6" y2="679.6"/>
                    <line class="st5" x1="598.6" y1="3.9" x2="182.6" y2="679.6"/>
                    <line class="st5" x1="652.6" y1="3.9" x2="236.6" y2="679.6"/>
                    <line class="st5" x1="688.6" y1="3.9" x2="272.6" y2="679.6"/>
                    <line class="st5" x1="724.6" y1="3.9" x2="308.6" y2="679.6"/>
                    <line class="st5" x1="760.6" y1="3.9" x2="344.6" y2="679.6"/>
                    <line class="st5" x1="982.6" y1="3.9" x2="566.6" y2="679.6"/>
                    <line class="st5" x1="772.6" y1="3.9" x2="356.6" y2="679.6"/>
                    <line class="st5" x1="838.6" y1="3.9" x2="422.6" y2="679.6"/>
                    <line class="st5" x1="886.6" y1="3.9" x2="470.6" y2="679.6"/>
                    <line class="st5" x1="934.6" y1="3.9" x2="518.6" y2="679.6"/>
                    <line class="st5" x1="994.6" y1="3.9" x2="578.6" y2="679.6"/>
                    <line class="st5" x1="1006.6" y1="3.9" x2="590.6" y2="679.6"/>
                    <line class="st5" x1="784.6" y1="3.9" x2="368.6" y2="679.6"/>
                    <line class="st5" x1="850.6" y1="3.9" x2="434.6" y2="679.6"/>
                    <line class="st5" x1="898.6" y1="3.9" x2="482.6" y2="679.6"/>
                    <line class="st5" x1="946.6" y1="3.9" x2="530.6" y2="679.6"/>
                    <line class="st5" x1="1018.6" y1="3.9" x2="602.6" y2="679.6"/>
                    <line class="st5" x1="1030.6" y1="3.9" x2="614.6" y2="679.6"/>
                    <line class="st5" x1="796.6" y1="3.9" x2="380.6" y2="679.6"/>
                    <line class="st5" x1="862.6" y1="3.9" x2="446.6" y2="679.6"/>
                    <line class="st5" x1="910.6" y1="3.9" x2="494.6" y2="679.6"/>
                    <line class="st5" x1="958.6" y1="3.9" x2="542.6" y2="679.6"/>
                    <line class="st5" x1="1042.6" y1="3.9" x2="626.6" y2="679.6"/>
                    <line class="st5" x1="604.6" y1="3.9" x2="188.6" y2="679.6"/>
                    <line class="st5" x1="658.6" y1="3.9" x2="242.6" y2="679.6"/>
                    <line class="st5" x1="694.6" y1="3.9" x2="278.6" y2="679.6"/>
                    <line class="st5" x1="730.6" y1="3.9" x2="314.6" y2="679.6"/>
                    <line class="st5" x1="766.6" y1="3.9" x2="350.6" y2="679.6"/>
                    <line class="st5" x1="988.6" y1="3.9" x2="572.6" y2="679.6"/>
                    <line class="st5" x1="778.6" y1="3.9" x2="362.6" y2="679.6"/>
                    <line class="st5" x1="844.6" y1="3.9" x2="428.6" y2="679.6"/>
                    <line class="st5" x1="892.6" y1="3.9" x2="476.6" y2="679.6"/>
                    <line class="st5" x1="940.6" y1="3.9" x2="524.6" y2="679.6"/>
                    <line class="st5" x1="1000.6" y1="3.9" x2="584.6" y2="679.6"/>
                    <line class="st5" x1="1012.6" y1="3.9" x2="596.6" y2="679.6"/>
                    <line class="st5" x1="790.6" y1="3.9" x2="374.6" y2="679.6"/>
                    <line class="st5" x1="856.6" y1="3.9" x2="440.6" y2="679.6"/>
                    <line class="st5" x1="904.6" y1="3.9" x2="488.6" y2="679.6"/>
                    <line class="st5" x1="952.6" y1="3.9" x2="536.6" y2="679.6"/>
                    <line class="st5" x1="1024.6" y1="3.9" x2="608.6" y2="679.6"/>
                    <line class="st5" x1="1036.6" y1="3.9" x2="620.6" y2="679.6"/>
                    <line class="st5" x1="802.6" y1="3.9" x2="386.6" y2="679.6"/>
                    <line class="st5" x1="868.6" y1="3.9" x2="452.6" y2="679.6"/>
                    <line class="st5" x1="916.6" y1="3.9" x2="500.6" y2="679.6"/>
                    <line class="st5" x1="1048.6" y1="3.9" x2="632.6" y2="679.6"/>
				</g>
			</g>
		</g>
            <g>

				<image style="overflow:visible;opacity:0.1;" width="376" height="376" xlink:href="C8E654F578203A8A.png"
                       transform="matrix(1 0 0 1 432 -8)">
			</image>
                <g>
				<g>
					<defs>
						<rect id="SVGID_5_" x="441" y="0" width="358" height="358"/>
					</defs>
                    <clipPath id="SVGID_6_">
						<use xlink:href="#SVGID_5_" style="overflow:visible;"/>
					</clipPath>
				</g>
                    <g>
					<defs>
						<rect id="SVGID_7_" x="441" y="0" width="358" height="358"/>
					</defs>
                        <clipPath id="SVGID_8_">
						<use xlink:href="#SVGID_7_" style="overflow:visible;"/>
					</clipPath>
                        <g class="st6">
						<rect x="430" y="-21" class="st7" width="388" height="383"/>
                            <path class="st8"
                                  d="M432.3,43.1l-10.7-8.3l-38.6,19.6l7.7,11.9l-24.3,28.5h16.6h27.3l11.3-14.2V66.3l10.7-11.9V43.1z"/>
                            <path class="st8" d="M432.3,11.7l32-22l28.5,7.7l-15.4,37.4l23.1,23.7l5.3,36.2l-13.1,25.5l-60.5,14.2l14.2-39.8L464.4,74
							V43.1L432.3,11.7z"/>
                            <path class="st8" d="M432.3,156.5l-10.7,9.5l24.9,18.4l10.1,28.5L446.6,255h-36.2l-55.2-13.1l-100.9,62.9v77.7l91.4,49.8
							l100.9-41.5v-68.2l54-27.9l3.6-23.1l24.9-13.1l16.6,11.3l48.1-26.1l7.1-1.8l32,41.5l36.2,16.6l15.4,8.9l7.7,5.3l4.7,8.3v19
							l-4.7,10.1l3,8.3l29.7-30.3L713,319.6l-5.3-10.7l5.3-5.9h11.9l7.1,5.9l5.9-4.2l-13.1-10.1l-22.5-11.3l-33.2-7.7L641.8,255
							l-8.9-35l36.2-15.4l33.2,37.4l48.1,13.1v45.1l36.2,14.2l32,18.4h22l-36.2-32.6l14.2-24.3h33.8l27.3-33.8l-15.4-8.9l15.4-67.1
							l20.8-24.9l20.8,7.7l27.9-14.2l32.6-39.8v25.5v28.5l30.9,7.7l54.6-22l-22-174.5L812.1-90.4L650.7-48.9L632.9-2.6l8.9,37.4
							l27.3-8.9l8.9-36.2l43.9-23.1l17.8,30.9v28.5l-17.8,28.5l-19.6,11.9h-51.6h-36.2l-5.1-11.9l5.1-19.6h-24.3v23.7v22l-24.9,14.2
							l-19,14.2L519,120.3l-26.1,28.5l-36.2,7.7H432.3z"/>
                            <path class="st8" d="M596.1,287.6l13.3-17.8h-19.2L596.1,287.6z"/>
                            <path class="st8" d="M590.2,319.6l10.7-16.6l-27.3-8.3V309L590.2,319.6z"/>
                            <defs>
							<filter id="Adobe_OpacityMaskFilter_1_" filterUnits="userSpaceOnUse" x="96.5" y="-185.4"
                                    width="1017.8" height="737.6">
								<feColorMatrix type="matrix" values="1 0 0 0 0  0 1 0 0 0  0 0 1 0 0  0 0 0 1 0"/>
							</filter>
						</defs>
                            <mask maskUnits="userSpaceOnUse" x="96.5" y="-185.4" width="1017.8" height="737.6"
                                  id="mask1_8_">
							<path class="st9"
                                  d="M432.3,43.1l-10.7-8.3l-38.6,19.6l7.7,11.9l-24.3,28.5h16.6h27.3l11.3-14.2V66.3l10.7-11.9V43.1z"/>
                                <path class="st10" d="M432.3,11.7l32-22l28.5,7.7l-15.4,37.4l23.1,23.7l5.3,36.2l-13.1,25.5l-60.5,14.2l14.2-39.8L464.4,74
								V43.1L432.3,11.7z"/>
                                <path class="st10" d="M432.3,156.5l-10.7,9.5l24.9,18.4l10.1,28.5L446.6,255h-36.2l-55.2-13.1l-100.9,62.9v77.7l91.4,49.8
								l100.9-41.5v-68.2l54-27.9l3.6-23.1l24.9-13.1l16.6,11.3l48.1-26.1l7.1-1.8l32,41.5l36.2,16.6l15.4,8.9l7.7,5.3l4.7,8.3v19
								l-4.7,10.1l3,8.3l29.7-30.3L713,319.6l-5.3-10.7l5.3-5.9h11.9l7.1,5.9l5.9-4.2l-13.1-10.1l-22.5-11.3l-33.2-7.7L641.8,255
								l-8.9-35l36.2-15.4l33.2,37.4l48.1,13.1v45.1l36.2,14.2l32,18.4h22l-36.2-32.6l14.2-24.3h33.8l27.3-33.8l-15.4-8.9l15.4-67.1
								l20.8-24.9l20.8,7.7l27.9-14.2l32.6-39.8v25.5v28.5l30.9,7.7l54.6-22l-22-174.5L812.1-90.4L650.7-48.9L632.9-2.6l8.9,37.4
								l27.3-8.9l8.9-36.2l43.9-23.1l17.8,30.9v28.5l-17.8,28.5l-19.6,11.9h-51.6h-36.2l-5.1-11.9l5.1-19.6h-24.3v23.7v22
								l-24.9,14.2l-19,14.2L519,120.3l-26.1,28.5l-36.2,7.7H432.3z"/>
                                <path class="st10" d="M596.1,287.6l13.3-17.8h-19.2L596.1,287.6z"/>
                                <path class="st10" d="M590.2,319.6l10.7-16.6l-27.3-8.3V309L590.2,319.6z"/>
						</mask>
                            <g class="st11">
							<line class="st5" x1="1034.2" y1="-184.3" x2="581.5" y2="551.2"/>
                                <line class="st5" x1="1040.7" y1="-184.3" x2="588" y2="551.2"/>
                                <line class="st5" x1="564" y1="-184.3" x2="111.3" y2="551.2"/>
                                <line class="st5" x1="577.1" y1="-184.3" x2="124.3" y2="551.2"/>
                                <line class="st5" x1="642.4" y1="-184.3" x2="189.6" y2="551.2"/>
                                <line class="st5" x1="662" y1="-184.3" x2="209.2" y2="551.2"/>
                                <line class="st5" x1="707.7" y1="-184.3" x2="255" y2="551.2"/>
                                <line class="st5" x1="746.9" y1="-184.3" x2="294.1" y2="551.2"/>
                                <line class="st5" x1="550.9" y1="-184.3" x2="98.2" y2="551.2"/>
                                <line class="st5" x1="570.5" y1="-184.3" x2="117.8" y2="551.2"/>
                                <line class="st5" x1="596.6" y1="-184.3" x2="143.9" y2="551.2"/>
                                <line class="st5" x1="557.5" y1="-184.3" x2="104.7" y2="551.2"/>
                                <line class="st5" x1="590.1" y1="-184.3" x2="137.4" y2="551.2"/>
                                <line class="st5" x1="609.7" y1="-184.3" x2="157" y2="551.2"/>
                                <line class="st5" x1="655.4" y1="-184.3" x2="202.7" y2="551.2"/>
                                <line class="st5" x1="701.1" y1="-184.3" x2="248.4" y2="551.2"/>
                                <line class="st5" x1="740.3" y1="-184.3" x2="287.6" y2="551.2"/>
                                <line class="st5" x1="786" y1="-184.3" x2="333.3" y2="551.2"/>
                                <line class="st5" x1="864.4" y1="-184.3" x2="411.7" y2="551.2"/>
                                <line class="st5" x1="877.5" y1="-184.3" x2="424.8" y2="551.2"/>
                                <line class="st5" x1="929.7" y1="-184.3" x2="477" y2="551.2"/>
                                <line class="st5" x1="936.3" y1="-184.3" x2="483.5" y2="551.2"/>
                                <line class="st5" x1="982" y1="-184.3" x2="529.2" y2="551.2"/>
                                <line class="st5" x1="988.5" y1="-184.3" x2="535.8" y2="551.2"/>
                                <line class="st5" x1="583.6" y1="-184.3" x2="130.9" y2="551.2"/>
                                <line class="st5" x1="603.2" y1="-184.3" x2="150.5" y2="551.2"/>
                                <line class="st5" x1="648.9" y1="-184.3" x2="196.2" y2="551.2"/>
                                <line class="st5" x1="668.5" y1="-184.3" x2="215.8" y2="551.2"/>
                                <line class="st5" x1="779.5" y1="-184.3" x2="326.8" y2="551.2"/>
                                <line class="st5" x1="857.9" y1="-184.3" x2="405.2" y2="551.2"/>
                                <line class="st5" x1="870.9" y1="-184.3" x2="418.2" y2="551.2"/>
                                <line class="st5" x1="884" y1="-184.3" x2="431.3" y2="551.2"/>
                                <line class="st5" x1="616.2" y1="-184.3" x2="163.5" y2="551.2"/>
                                <line class="st5" x1="675" y1="-184.3" x2="222.3" y2="551.2"/>
                                <line class="st5" x1="714.2" y1="-184.3" x2="261.5" y2="551.2"/>
                                <line class="st5" x1="753.4" y1="-184.3" x2="300.7" y2="551.2"/>
                                <line class="st5" x1="792.6" y1="-184.3" x2="339.9" y2="551.2"/>
                                <line class="st5" x1="622.8" y1="-184.3" x2="170" y2="551.2"/>
                                <line class="st5" x1="681.5" y1="-184.3" x2="228.8" y2="551.2"/>
                                <line class="st5" x1="720.7" y1="-184.3" x2="268" y2="551.2"/>
                                <line class="st5" x1="759.9" y1="-184.3" x2="307.2" y2="551.2"/>
                                <line class="st5" x1="799.1" y1="-184.3" x2="346.4" y2="551.2"/>
                                <line class="st5" x1="629.3" y1="-184.3" x2="176.6" y2="551.2"/>
                                <line class="st5" x1="688.1" y1="-184.3" x2="235.4" y2="551.2"/>
                                <line class="st5" x1="727.3" y1="-184.3" x2="274.5" y2="551.2"/>
                                <line class="st5" x1="766.4" y1="-184.3" x2="313.7" y2="551.2"/>
                                <line class="st5" x1="805.6" y1="-184.3" x2="352.9" y2="551.2"/>
                                <line class="st5" x1="1047.3" y1="-184.3" x2="594.6" y2="551.2"/>
                                <line class="st5" x1="818.7" y1="-184.3" x2="366" y2="551.2"/>
                                <line class="st5" x1="890.5" y1="-184.3" x2="437.8" y2="551.2"/>
                                <line class="st5" x1="942.8" y1="-184.3" x2="490.1" y2="551.2"/>
                                <line class="st5" x1="995" y1="-184.3" x2="542.3" y2="551.2"/>
                                <line class="st5" x1="1060.3" y1="-184.3" x2="607.6" y2="551.2"/>
                                <line class="st5" x1="1073.4" y1="-184.3" x2="620.7" y2="551.2"/>
                                <line class="st5" x1="831.8" y1="-184.3" x2="379" y2="551.2"/>
                                <line class="st5" x1="903.6" y1="-184.3" x2="450.9" y2="551.2"/>
                                <line class="st5" x1="955.8" y1="-184.3" x2="503.1" y2="551.2"/>
                                <line class="st5" x1="1008.1" y1="-184.3" x2="555.4" y2="551.2"/>
                                <line class="st5" x1="1086.5" y1="-184.3" x2="633.7" y2="551.2"/>
                                <line class="st5" x1="1099.5" y1="-184.3" x2="646.8" y2="551.2"/>
                                <line class="st5" x1="844.8" y1="-184.3" x2="392.1" y2="551.2"/>
                                <line class="st5" x1="916.7" y1="-184.3" x2="463.9" y2="551.2"/>
                                <line class="st5" x1="968.9" y1="-184.3" x2="516.2" y2="551.2"/>
                                <line class="st5" x1="1021.2" y1="-184.3" x2="568.4" y2="551.2"/>
                                <line class="st5" x1="1112.6" y1="-184.3" x2="659.9" y2="551.2"/>
                                <line class="st5" x1="635.8" y1="-184.3" x2="183.1" y2="551.2"/>
                                <line class="st5" x1="694.6" y1="-184.3" x2="241.9" y2="551.2"/>
                                <line class="st5" x1="733.8" y1="-184.3" x2="281.1" y2="551.2"/>
                                <line class="st5" x1="773" y1="-184.3" x2="320.3" y2="551.2"/>
                                <line class="st5" x1="812.2" y1="-184.3" x2="359.4" y2="551.2"/>
                                <line class="st5" x1="1053.8" y1="-184.3" x2="601.1" y2="551.2"/>
                                <line class="st5" x1="825.2" y1="-184.3" x2="372.5" y2="551.2"/>
                                <line class="st5" x1="897.1" y1="-184.3" x2="444.3" y2="551.2"/>
                                <line class="st5" x1="949.3" y1="-184.3" x2="496.6" y2="551.2"/>
                                <line class="st5" x1="1001.6" y1="-184.3" x2="548.8" y2="551.2"/>
                                <line class="st5" x1="1066.9" y1="-184.3" x2="614.2" y2="551.2"/>
                                <line class="st5" x1="1079.9" y1="-184.3" x2="627.2" y2="551.2"/>
                                <line class="st5" x1="838.3" y1="-184.3" x2="385.6" y2="551.2"/>
                                <line class="st5" x1="910.1" y1="-184.3" x2="457.4" y2="551.2"/>
                                <line class="st5" x1="962.4" y1="-184.3" x2="509.7" y2="551.2"/>
                                <line class="st5" x1="1014.6" y1="-184.3" x2="561.9" y2="551.2"/>
                                <line class="st5" x1="851.4" y1="-184.3" x2="398.6" y2="551.2"/>
                                <line class="st5" x1="923.2" y1="-184.3" x2="470.5" y2="551.2"/>
                                <line class="st5" x1="975.4" y1="-184.3" x2="522.7" y2="551.2"/>
                                <line class="st5" x1="1027.7" y1="-184.3" x2="575" y2="551.2"/>
						</g>
                            <path class="st12" d="M786,13H454v332h332V13z M441,0v358h358V0H441z"/>
					</g>
				</g>
                    <g>
					<defs>
						<rect id="SVGID_9_" x="441" y="0" width="358" height="358"/>
					</defs>
                        <clipPath id="SVGID_10_">
						<use xlink:href="#SVGID_9_" style="overflow:visible;"/>
					</clipPath>
				</g>
			</g>
		</g>
	</g>
</g>
</svg>
