<svg enable-background="new 0 0 16 16" version="1.1" viewBox="0 0 16 16" xml:space="preserve"
     xmlns="http://www.w3.org/2000/svg">
    <path fill="#D73676"
          d="m8 2.2613c1.8691 0 2.0905 0.0071 2.8286 0.0408 0.6825 0.0311 1.0531 0.1452 1.2998 0.241 0.3267 0.127 0.5599 0.2787 0.8049 0.5236 0.245 0.245 0.3967 0.4781 0.5236 0.8049 0.0959 0.2467 0.2099 0.6173 0.241 1.2998 0.0337 0.7381 0.0408 0.9595 0.0408 2.8286s-0.0071 2.0905-0.0408 2.8286c-0.0311 0.6825-0.1452 1.0531-0.241 1.2998-0.127 0.3267-0.2787 0.5599-0.5236 0.8049-0.245 0.245-0.4781 0.3967-0.8049 0.5236-0.2467 0.0959-0.6173 0.2099-1.2998 0.241-0.738 0.0337-0.9594 0.0408-2.8286 0.0408s-2.0906-0.0071-2.8286-0.0408c-0.6825-0.0311-1.0531-0.1452-1.2998-0.241-0.3267-0.127-0.5599-0.2787-0.8049-0.5236s-0.3967-0.4781-0.5236-0.8049c-0.0959-0.2467-0.2099-0.6173-0.241-1.2998-0.0337-0.7381-0.0408-0.9595-0.0408-2.8286s0.0071-2.0905 0.0408-2.8286c0.0311-0.6825 0.1452-1.0531 0.241-1.2998 0.127-0.3267 0.2787-0.5599 0.5236-0.8049s0.4781-0.3967 0.8049-0.5236c0.2467-0.0959 0.6173-0.2099 1.2998-0.241 0.7381-0.0337 0.9595-0.0408 2.8286-0.0408m0-1.2613c-1.9011 0-2.1395 8e-3 -2.8861 0.0421-0.7451 0.034-1.2539 0.1523-1.6992 0.3254-0.4603 0.1789-0.8507 0.4182-1.2398 0.8074-0.3892 0.3891-0.6285 0.7795-0.8074 1.2398-0.173 0.4453-0.2914 0.9541-0.3254 1.6992-0.0341 0.7466-0.0421 0.985-0.0421 2.8861s8e-3 2.1395 0.0421 2.8861c0.034 0.7451 0.1523 1.2539 0.3254 1.6992 0.1789 0.4603 0.4182 0.8507 0.8074 1.2398 0.3892 0.3892 0.7795 0.6285 1.2399 0.8074 0.4453 0.173 0.9541 0.2914 1.6992 0.3254 0.7465 0.034 0.9849 0.0421 2.886 0.0421s2.1395-8e-3 2.8861-0.0421c0.7451-0.034 1.2539-0.1523 1.6992-0.3254 0.4603-0.1789 0.8507-0.4182 1.2398-0.8074 0.3892-0.3892 0.6285-0.7795 0.8074-1.2398 0.173-0.4453 0.2914-0.9541 0.3254-1.6992 0.0341-0.7466 0.0421-0.985 0.0421-2.8861s-8e-3 -2.1395-0.0421-2.8861c-0.034-0.7451-0.1523-1.2539-0.3254-1.6992-0.1789-0.4603-0.4182-0.8507-0.8074-1.2399s-0.7795-0.6285-1.2398-0.8074c-0.4453-0.1731-0.9541-0.2914-1.6992-0.3254-0.7466-0.034-0.985-0.042-2.8861-0.042z"/>
    <path fill="#D73676"
          d="M8,4.4054C6.0148,4.4054,4.4054,6.0148,4.4054,8S6.0148,11.5946,8,11.5946S11.5946,9.9852,11.5946,8   S9.9852,4.4054,8,4.4054z M8,10.3333c-1.2887,0-2.3333-1.0447-2.3333-2.3333c0-1.2887,1.0447-2.3333,2.3333-2.3333   S10.3333,6.7113,10.3333,8S9.2887,10.3333,8,10.3333z"/>
    <circle fill="#D73676" cx="11.737" cy="4.2634" r=".84"/>
</svg>
