<svg enable-background="new 0 0 16 16" version="1.1" viewBox="0 0 16 16" xml:space="preserve"
     xmlns="http://www.w3.org/2000/svg">
    <path fill="#0077B5"
          d="m13.964 1.0002h-11.93c-0.57012 0-1.0333 0.45187-1.0333 1.0088v11.981c0 0.5575 0.46322 1.0101 1.0333 1.0101h11.93c0.57108 0 1.0363-0.45259 1.0363-1.0101v-11.981c0-0.55692-0.46521-1.0088-1.0363-1.0088zm-8.8115 11.93h-2.0766v-6.6811h2.0766v6.6811zm-1.0379-7.5944c-0.66554 0-1.2041-0.5395-1.2041-1.2042 0-0.66407 0.53861-1.2036 1.2041-1.2036 0.66392 0 1.2034 0.5395 1.2034 1.2036 1e-5 0.66468-0.53945 1.2042-1.2034 1.2042zm8.8153 7.5944h-2.075v-3.2491c0-0.77472-0.01424-1.7714-1.0791-1.7714-1.0803 0-1.2462 0.84397-1.2462 1.7153v3.3051h-2.0747v-6.6811h1.9915v0.91291h0.02782c0.27722-0.52527 0.95463-1.079 1.9648-1.079 2.1027 0 2.4909 1.3839 2.4909 3.1826v3.6646z"/>
</svg>
