<svg enable-background="new 0 0 16 16" version="1.1" viewBox="0 0 16 16" xml:space="preserve"
     xmlns="http://www.w3.org/2000/svg">
    <path fill="#BD081C"
          d="m8 16c-0.79119 0-1.5414-0.11541-2.2703-0.33409 0.3022-0.47836 0.64541-1.0934 0.81245-1.7069 0 0 0.09263-0.35535 0.56188-2.1989 0.27031 0.53151 1.0828 0.99924 1.9484 0.99924 2.5725 0 4.3219-2.3424 4.3219-5.4882 0-2.3645-2.0091-4.5839-5.0721-4.5839-3.792 0-5.7084 2.7297-5.7084 5 0 1.3751 0.52088 2.6044 1.6355 3.063 0.17768 0.07289 0.3432 0 0.39636-0.20881 0.041-0.13516 0.12453-0.48899 0.16553-0.63478 0.05314-0.2088 0.03188-0.27106-0.1139-0.44798-0.32347-0.38573-0.53151-0.87548-0.53151-1.5733 0-2.0205 1.511-3.833 3.9377-3.833 2.1458 0 3.3333 1.3121 3.3333 3.0729 0 2.3014-1.0205 4.2498-2.5421 4.2498-0.83371 0-1.4579-0.68793-1.2604-1.5421 0.23993-1.0099 0.70918-2.104 0.70918-2.833 0-0.65604-0.35535-1.208-1.0843-1.208-0.85346 0-1.5414 0.88535-1.5414 2.0729 0 0 0 0.76006 0.2612 1.2703-0.87623 3.7092-1.0326 4.3546-1.0326 4.3546-0.14579 0.60289-0.1549 1.2802-0.13516 1.8436-2.8231-1.2407-4.7912-4.0524-4.7912-7.3333 0-4.4169 3.5839-8 8-8s8 3.5831 8 8c0 4.4161-3.5839 8-8 8z"/>
</svg>
