<svg enable-background="new 0 0 16 16" version="1.1" viewBox="0 0 16 16" xml:space="preserve"
     xmlns="http://www.w3.org/2000/svg">
    <path fill="#030303"
          d="m8.101 15.509c-0.04125 0-0.08176-0.00118-0.12226-0.0031h-9e-5c-0.02582 0.00201-0.05283 0.0031-0.07983 0.0031-0.94788 0-1.5563-0.43004-2.1446-0.846-0.40622-0.28705-0.78955-0.558-1.2412-0.63323-0.22039-0.03647-0.43977-0.05501-0.65177-0.05501-0.38191 0-0.68322 0.05896-0.90318 0.10197-0.13367 0.02617-0.24899 0.04864-0.33662 0.04864-0.09157 0-0.19079-0.0198-0.23389-0.16713-0.03748-0.12764-0.06457-0.25125-0.09065-0.37083-0.06718-0.30777-0.11489-0.49705-0.24387-0.51683-1.5034-0.23221-1.9336-0.54887-2.0296-0.77353-0.01358-0.03213-0.0213-0.06433-0.02315-0.09619-0.00486-0.0863 0.05628-0.16252 0.14156-0.17644 2.311-0.38057 3.3474-2.7426 3.3904-2.8429 0.00118-0.00277 0.00244-0.00545 0.0037-0.00822 0.14147-0.28664 0.16914-0.53546 0.0826-0.73941-0.15858-0.37376-0.67583-0.53805-1.0182-0.64664-0.08377-0.0265-0.16319-0.05158-0.22583-0.07632-0.68322-0.27011-0.74008-0.54736-0.71324-0.68866 0.04579-0.24076 0.36757-0.40857 0.62778-0.40857 0.07136 0 0.13418 0.01265 0.18701 0.03731 0.30735 0.14399 0.58435 0.21696 0.82335 0.21696 0.33024 0 0.4744-0.13879 0.49201-0.15698-0.00839-0.1564-0.01879-0.31977-0.02944-0.48833-0.06884-1.0926-0.15413-2.4503 0.19155-3.2252 1.036-2.323 3.233-2.5034 3.8817-2.5034 0.01661 0 0.28437-0.00285 0.28437-0.00285l0.0384-1.7e-4c0.65017 0 2.8519 0.18081 3.8886 2.505 0.34575 0.77538 0.26021 2.1342 0.19128 3.226l-0.00284 0.04746c-0.00955 0.15204-0.01878 0.29981-0.0265 0.44127 0.01653 0.01686 0.14911 0.1445 0.44849 0.15598h3.3e-4c0.22752-0.00871 0.48899-0.08125 0.77596-0.21568 0.08412-0.03925 0.17754-0.04755 0.2411-0.04755 0.09711 0 0.19557 0.01879 0.27733 0.05291l0.00495 0.00202c0.23212 0.08227 0.38417 0.24496 0.38743 0.41495 0.00302 0.16009-0.11917 0.40077-0.71869 0.63759-0.06214 0.0244-0.14155 0.04964-0.22567 0.07631-0.34274 0.10877-0.85983 0.27289-1.0183 0.64657-0.08663 0.20387-0.05888 0.45251 0.08252 0.73931 0.00126 0.00277 0.00268 0.00545 0.00378 0.00839 0.04301 0.10021 1.0784 2.4616 3.3905 2.8426 0.08537 0.01408 0.14633 0.09022 0.14164 0.1766-0.00193 0.03238-0.00981 0.06499-0.02365 0.0967-0.09536 0.22306-0.52531 0.5393-2.0292 0.77168-0.12285 0.01887-0.17048 0.17896-0.24379 0.51466-0.02666 0.12218-0.05367 0.24219-0.09082 0.3684-0.03203 0.10952-0.10029 0.16076-0.2151 0.16076h-0.0187c-0.07968 0-0.19296-0.01425-0.33654-0.04244-0.2546-0.04981-0.54006-0.09568-0.90326-0.09568-0.21209 0-0.43154 0.01854-0.6521 0.05501-0.45117 0.07523-0.83425 0.34567-1.2397 0.63231-0.58946 0.41688-1.1978 0.84692-2.1459 0.84692z"/>
</svg>
