<svg enable-background="new 0 0 16 16" version="1.1" viewBox="0 0 16 16" xml:space="preserve"
     xmlns="http://www.w3.org/2000/svg">
    <path fill="#1DA1F2"
          d="m5.0317 14.5c6.0378 0 9.3402-5.0022 9.3402-9.3402 0-0.14208 0-0.28352-0.0096-0.42432 0.64245-0.4647 1.197-1.0401 1.6378-1.6992-0.59912 0.26547-1.2347 0.43957-1.8854 0.51648 0.68528-0.41025 1.1982-1.0555 1.4432-1.8157-0.64438 0.38237-1.3494 0.65185-2.0845 0.7968-1.2432-1.3219-3.3226-1.3858-4.6446-0.14256-0.85254 0.80176-1.2143 1.9965-0.94966 3.1365-2.6394-0.13232-5.0986-1.379-6.7654-3.4298-0.87128 1.4999-0.42625 3.4188 1.0163 4.3821-0.52241-0.01548-1.0334-0.15641-1.4899-0.41088v0.0416c4.3e-4 1.5626 1.1019 2.9085 2.6336 3.2179-0.48328 0.1318-0.99035 0.15107-1.4822 0.05632 0.43005 1.3372 1.6624 2.2533 3.0669 2.2797-1.1624 0.91356-2.5984 1.4095-4.0768 1.408-0.26118-5e-4 -0.52211-0.01632-0.78144-0.04736 1.5012 0.96338 3.2479 1.4744 5.0317 1.472"/>
</svg>
