<svg enable-background="new 0 0 16 16" version="1.1" viewBox="0 0 16 16" xml:space="preserve"
     xmlns="http://www.w3.org/2000/svg">
    <path fill="#4680C2"
          d="m5.851 0.9998h4.2979c3.9225 0 4.8512 0.9287 4.8512 4.8512v4.2979c0 3.9225-0.9287 4.8512-4.8512 4.8512h-4.2979c-3.9225 0-4.8512-0.9287-4.8512-4.8512v-4.2979c0-3.9224 0.9288-4.8512 4.8512-4.8512"/>
    <path fill="#FFFFFF"
          d="m12.461 5.8214c0.0692-0.2174 0-0.3754-0.3063-0.3754h-1.0176c-0.2569 0-0.3754 0.1383-0.4446 0.2865 0 0-0.5237 1.2647-1.2548 2.0847-0.2372 0.2371-0.3458 0.3162-0.4743 0.3162-0.0692 0-0.1581-0.079-0.1581-0.2964v-2.0255c0-0.2569-0.079-0.3755-0.2964-0.3755h-1.6006c-0.1581 0-0.2569 0.1186-0.2569 0.2371 0 0.247 0.3656 0.3063 0.4051 0.9979v1.5018c0 0.326-0.0593 0.3853-0.1877 0.3853-0.3458 0-1.1856-1.2746-1.6895-2.7269-0.0988-0.2864-0.1976-0.3951-0.4545-0.3951h-1.0275c-0.2964 0-0.3458 0.1383-0.3458 0.2865 0 0.2668 0.3458 1.6105 1.6105 3.3889 0.8398 1.2153 2.0353 1.8674 3.1123 1.8674 0.6521 0 0.7311-0.1482 0.7311-0.3952v-0.9189c0-0.2964 0.0593-0.3458 0.2668-0.3458 0.1482 0 0.415 0.079 1.0177 0.662 0.6916 0.6916 0.8102 1.0078 1.1955 1.0078h1.0177c0.2964 0 0.4347-0.1482 0.3557-0.4347-0.0889-0.2865-0.4249-0.7015-0.8596-1.1955-0.2371-0.2766-0.5928-0.5829-0.7015-0.7311-0.1482-0.1976-0.1087-0.2766 0-0.4545-0.01-1e-4 1.2349-1.7588 1.3633-2.3516"/>
</svg>
