<svg enable-background="new 0 0 16 16" version="1.1" viewBox="0 0 16 16" xml:space="preserve"
     xmlns="http://www.w3.org/2000/svg">
    <path fill="#FF0000"
          d="M15.66569,4.12386c-0.184-0.69287-0.72616-1.23853-1.41455-1.42375C13.00334,2.36361,8,2.36361,8,2.36361  s-5.00334,0-6.25106,0.33651c-0.6884,0.18522-1.23063,0.73088-1.41463,1.42375C0,5.37972,0,8,0,8s0,2.62028,0.33431,3.87614  c0.184,0.69287,0.72624,1.23853,1.41463,1.42375C2.99666,13.63639,8,13.63639,8,13.63639s5.00334,0,6.25114-0.33651  c0.68839-0.18522,1.23055-0.73088,1.41455-1.42375C16,10.62028,16,8,16,8S16,5.37972,15.66569,4.12386z M6.36361,10.37899V5.62101  l4.18188,2.37907L6.36361,10.37899z"/>
</svg>
