<svg xmlns="http://www.w3.org/2000/svg" width="47" height="47" viewBox="0 0 47 47">
  <g id="Group_335" transform="translate(-793 -3648)">
    <circle id="Ellipse_1" cx="23.5" cy="23.5" r="23.5" transform="translate(793 3648)" fill="#fff"/>
    <path id="Icon_ionic-ios-arrow-dropdown-circle" d="M3.375,23.375a20,20,0,1,0,20-20A20,20,0,0,0,3.375,23.375Zm27.8-4.173a1.863,1.863,0,0,1,2.625,0,1.833,1.833,0,0,1,.538,1.308,1.865,1.865,0,0,1-.548,1.317l-9.067,9.038a1.854,1.854,0,0,1-2.558-.058l-9.2-9.173a1.856,1.856,0,0,1,2.625-2.625l7.8,7.875Z" transform="translate(839.875 3648.116) rotate(90)" fill="#a30c65"/>
  </g>
</svg>
