<svg id="emplifi-logo-white-RGB" xmlns="http://www.w3.org/2000/svg" width="352.576" height="75.02" viewBox="0 0 352.576 75.02">
  <g id="Group_125" transform="translate(345.665 0.661)">
    <path id="Path_252" d="M612.237,243.208H611.2v2.929h-.713v-2.929H609.45v-.638h2.794v.638Zm.616,2.929v-3.56h.511l1.232,1.607,1.277-1.607h.488v3.56h-.729v-2.186l-.894,1.164h-.27l-.894-1.164v2.186Z" transform="translate(-609.45 -242.57)" fill="#fff"/>
  </g>
  <path id="Path_253" d="M176.97,271.78h36.654s16.224-.3,16.224,16.224-15.773,15.773-15.773,15.773H209.02v4.755s-.03,15.713-15.638,15.638c-15.63-.068-16.322-15.623-16.322-18.229C177.06,304.708,176.97,271.78,176.97,271.78Z" transform="translate(-156.142 -249.179)" fill="#fff" opacity="0.8"/>
  <path id="Path_254" d="M202.118,296.97H165.464s-16.224.3-16.224-16.224,15.773-15.773,15.773-15.773h5.055v-4.755s.03-15.638,15.638-15.638,16.276,16.276,16.276,16.276Z" transform="translate(-149.24 -242.409)" fill="#fff" opacity="0.7"/>
  <path id="Path_255" d="M209.046,271.78H177.094v31.952a30.649,30.649,0,0,0,.729,7.977l7.443-7.977h23.78Z" transform="translate(-156.168 -249.179)" fill="#fff"/>
  <g id="Group_126" transform="translate(91.627 0)">
    <path id="Path_256" d="M307.621,303.8s-4.672,4.867-14.985,4.867c-13.332,0-21.406-9.051-21.406-21.5,0-12.356,7.879-21.5,19.852-21.5,11.867,0,18.582,8.465,18.582,20.34,0,.879-.1,2.531-.1,2.531h-29c.586,8.27,5.445,12.356,12.649,12.356a17.578,17.578,0,0,0,11-3.6Zm-26.664-21.6h19.168c-.683-5.934-3.891-9.148-9.246-9.148C285.629,273.051,282.031,276.07,280.957,282.2Z" transform="translate(-271.23 -247.656)" fill="#fff"/>
    <path id="Path_257" d="M332.355,266.626h6.227l1.164,5.836h.586c3.019-4.477,6.813-6.812,13.527-6.812s11.68,2.727,14.5,7.4h.488c2.727-4.477,6.715-7.4,14.008-7.4,10.606,0,16.735,7.4,16.735,18.387v23.449h-9.539V284.916c0-6.227-3.215-11.094-9.539-11.094-6.422,0-9.441,4.769-9.727,9.246v24.426h-9.539V283.947c0-5.738-3.4-10.117-9.637-10.117-6.52,0-9.441,4.965-9.727,9.246V307.5H332.34V266.626Z" transform="translate(-286.44 -247.654)" fill="#fff"/>
    <path id="Path_258" d="M444.4,302.725v19.949H434.86V266.626h6.324l1.36,5.836h.586s3.7-6.812,14.3-6.812c10.7,0,18.973,8.367,18.973,21.406,0,12.746-8.172,21.406-18.68,21.406-10.117,0-12.942-5.738-12.942-5.738Zm11-2.141c6.617,0,11.387-5.543,11.387-13.527,0-7.879-4.77-13.527-11.387-13.527-6.422,0-11.484,5.16-11.484,13.527C443.911,295.521,448.973,300.584,455.4,300.584Z" transform="translate(-311.957 -247.654)" fill="#fff"/>
    <path id="Path_259" d="M500.63,242.98h9.539v58.872H500.63Z" transform="translate(-328.327 -242.011)" fill="#fff"/>
    <path id="Path_260" d="M525.25,247.428a5.887,5.887,0,1,1,5.836,5.738A5.708,5.708,0,0,1,525.25,247.428Zm1.074,13.234h9.539v40.868h-9.539Z" transform="translate(-334.455 -241.69)" fill="#fff"/>
    <path id="Path_261" d="M552,260.76v-3.5c0-9.441,5.348-15.18,14.789-15.18a20.513,20.513,0,0,1,9.246,1.945l-3.019,7.2a12.825,12.825,0,0,0-5.258-1.067c-3.793,0-6.227,2.531-6.227,6.617v3.988h11.387v7.5H561.539v33.372H552V260.76Z" transform="translate(-341.113 -241.787)" fill="#fff"/>
    <path id="Path_262" d="M588.28,247.428a5.887,5.887,0,1,1,5.836,5.738A5.708,5.708,0,0,1,588.28,247.428Zm1.074,13.234h9.539v40.868h-9.539Z" transform="translate(-350.143 -241.69)" fill="#fff"/>
  </g>
</svg>
