<svg id="emplifi-logo-tagline-white-RGB" xmlns="http://www.w3.org/2000/svg" width="308.023" height="95.03"
     viewBox="0 0 308.023 95.03">
    <g id="Group_135" transform="translate(301.986 0.577)">
        <path id="Path_327"
              d="M611.884,243.128h-.906v2.559h-.623v-2.559h-.906v-.558h2.441v.558Zm.538,2.559v-3.11h.446l1.076,1.4,1.116-1.4h.427v3.11h-.636v-1.91l-.781,1.017h-.236l-.781-1.017v1.91Z"
              transform="translate(-609.45 -242.57)" fill="#fff"/>
    </g>
    <g id="Group_136" transform="translate(123.64 76.066)">
        <path id="Path_328" d="M337.66,359.09h8.3v2.225h-5.729v3.366h4.9v2.2h-4.9v3.524h5.919v2.224H337.66Z"
              transform="translate(-337.66 -358.119)" fill="#fff"/>
        <path id="Path_329"
              d="M353.32,364.089h2.4v1.24h.138a3.09,3.09,0,0,1,2.769-1.49,3.375,3.375,0,0,1,3.018,1.549h.157a3.348,3.348,0,0,1,3.018-1.549,3.513,3.513,0,0,1,3.714,3.675v6.752h-2.513v-5.879c0-1.391-.636-2.185-1.837-2.185a2.015,2.015,0,0,0-1.975,2.244v5.82H359.7V368.23a1.838,1.838,0,0,0-1.9-2.034,2.038,2.038,0,0,0-1.955,2.225v5.84h-2.513V364.089Z"
              transform="translate(-343.044 -359.752)" fill="#fff"/>
        <path id="Path_330"
              d="M379.67,364.086h2.474v1.293h.138a3.547,3.547,0,0,1,3.058-1.549c2.841,0,4.8,2.126,4.8,5.3s-1.936,5.381-4.718,5.381a3.5,3.5,0,0,1-3.1-1.568h-.138v5.768H379.67Zm7.914,5.092a2.744,2.744,0,0,0-2.749-3.058,3.076,3.076,0,1,0,2.749,3.058Z"
              transform="translate(-352.103 -359.748)" fill="#fff"/>
        <path id="Path_331"
              d="M397.31,369.244c0-3.189,1.936-5.394,4.718-5.394a3.684,3.684,0,0,1,3.1,1.568h.138v-1.312h2.513v10.178H405.3v-1.3h-.138a3.578,3.578,0,0,1-3.058,1.549C399.259,374.52,397.31,372.394,397.31,369.244Zm8.006-.039a2.747,2.747,0,1,0-2.73,3.058A2.794,2.794,0,0,0,405.316,369.2Z"
              transform="translate(-358.168 -359.755)" fill="#fff"/>
        <path id="Path_332"
              d="M417.1,369.544v-4.777H415.38v-1.995h1.142a.7.7,0,0,0,.735-.774V359.95h2.362v2.809h2.8v2.015h-2.8v4.679a1.244,1.244,0,0,0,1.391,1.391h1.352v2.087h-1.877A3.088,3.088,0,0,1,417.1,369.544Z"
              transform="translate(-364.381 -358.415)" fill="#fff"/>
        <path id="Path_333"
              d="M428.62,357.62h2.494v5.571h.157a3.135,3.135,0,0,1,2.822-1.49,3.528,3.528,0,0,1,3.675,3.773v6.654h-2.513v-6a1.938,1.938,0,0,0-1.995-2.067,2.111,2.111,0,0,0-2.126,2.185v5.879H428.62Z"
              transform="translate(-368.933 -357.613)" fill="#fff"/>
        <path id="Path_334"
              d="M445.273,376.6h1.043a1.62,1.62,0,0,0,1.647-1.181l.269-.715L444.19,364.22h2.651l2.533,7.159h.157l2.454-7.159h2.69l-4.488,11.916a3.576,3.576,0,0,1-3.655,2.71h-1.26Z"
              transform="translate(-374.286 -359.883)" fill="#fff"/>
        <path id="Path_335" d="M460.128,376.25h2.513l-1.043,4.816H459.78Z" transform="translate(-379.646 -364.019)"
              fill="#fff"/>
        <path id="Path_336"
              d="M473.49,369.244c0-3.189,1.936-5.394,4.718-5.394a3.684,3.684,0,0,1,3.1,1.568h.138v-1.312h2.513v10.178h-2.474v-1.3h-.138a3.578,3.578,0,0,1-3.058,1.549C475.445,374.52,473.49,372.394,473.49,369.244Zm8.012-.039a2.747,2.747,0,1,0-2.73,3.058A2.8,2.8,0,0,0,481.5,369.2Z"
              transform="translate(-384.359 -359.755)" fill="#fff"/>
        <path id="Path_337"
              d="M492.63,364.089h2.4v1.24h.138a3.09,3.09,0,0,1,2.769-1.49,3.375,3.375,0,0,1,3.018,1.549h.157a3.348,3.348,0,0,1,3.018-1.549,3.513,3.513,0,0,1,3.714,3.675v6.752h-2.513v-5.879c0-1.391-.637-2.185-1.837-2.185a2.015,2.015,0,0,0-1.975,2.244v5.82h-2.513V368.23a1.838,1.838,0,0,0-1.9-2.034,2.038,2.038,0,0,0-1.956,2.225v5.84h-2.513V364.089Z"
              transform="translate(-390.94 -359.752)" fill="#fff"/>
        <path id="Path_338"
              d="M518.98,364.086h2.474v1.293h.138a3.547,3.547,0,0,1,3.058-1.549c2.841,0,4.8,2.126,4.8,5.3s-1.936,5.381-4.718,5.381a3.5,3.5,0,0,1-3.1-1.568h-.138v5.768H518.98Zm7.914,5.092a2.744,2.744,0,0,0-2.75-3.058,3.076,3.076,0,1,0,2.75,3.058Z"
              transform="translate(-399.999 -359.748)" fill="#fff"/>
        <path id="Path_339"
              d="M537.12,369.267V357.62h2.513v11.411c0,.577.289.892.814.892h.407v2.2h-.945A2.575,2.575,0,0,1,537.12,369.267Z"
              transform="translate(-406.236 -357.613)" fill="#fff"/>
        <path id="Path_340"
              d="M544.58,359.16a1.551,1.551,0,1,1,1.549,1.47A1.426,1.426,0,0,1,544.58,359.16Zm.289,2.822h2.513v10.178h-2.513Z"
              transform="translate(-408.801 -357.644)" fill="#fff"/>
        <path id="Path_341"
              d="M552.419,363.962H550.68v-2.015h1.8v-.814a3.413,3.413,0,0,1,3.734-3.524h1.313V359.7h-1.063a1.394,1.394,0,0,0-1.549,1.509v.735h2.69v2.015h-2.671v8.163h-2.513Z"
              transform="translate(-410.898 -357.61)" fill="#fff"/>
        <path id="Path_342"
              d="M563.47,359.16a1.551,1.551,0,1,1,1.549,1.47A1.426,1.426,0,0,1,563.47,359.16Zm.3,2.822h2.513v10.178h-2.513Z"
              transform="translate(-415.295 -357.644)" fill="#fff"/>
        <path id="Path_343"
              d="M569.96,369.244a5.04,5.04,0,0,1,5.125-5.394c3.268,0,5.046,2.415,5.046,5.282v.794h-7.736a2.852,2.852,0,0,0,5.3,1.181h2.343c-.505,2.067-2.323,3.425-4.954,3.425A5.047,5.047,0,0,1,569.96,369.244Zm7.776-1.1a2.483,2.483,0,0,0-2.651-2.284,2.617,2.617,0,0,0-2.651,2.284Z"
              transform="translate(-417.526 -359.755)" fill="#fff"/>
        <path id="Path_344"
              d="M587.15,367.105c0-3.189,1.936-5.394,4.718-5.394a3.684,3.684,0,0,1,3.1,1.568h.138v-5.65h2.513v14.508h-2.474v-1.3H595a3.578,3.578,0,0,1-3.058,1.549C589.105,372.381,587.15,370.255,587.15,367.105Zm8.006-.039a2.747,2.747,0,1,0-2.73,3.058A2.794,2.794,0,0,0,595.156,367.066Z"
              transform="translate(-423.436 -357.617)" fill="#fff"/>
        <path id="Path_345" d="M605.9,377.181a1.434,1.434,0,0,1,1.47-1.431,1.431,1.431,0,1,1-1.47,1.431Z"
              transform="translate(-429.883 -363.847)" fill="#fff"/>
    </g>
    <g id="Group_137" transform="translate(299.624 76.066)">
        <path id="Path_346"
              d="M607.051,357.892H606.6v1.26H606.3v-1.26h-.446v-.276h1.2Zm.263,1.253V357.61h.223l.531.689.551-.689h.21v1.535h-.315V358.2l-.387.5h-.118l-.387-.5v.945Z"
              transform="translate(-605.85 -357.61)" fill="#fff"/>
    </g>
    <path id="Path_347"
          d="M176.97,271.78h32.022s14.174-.263,14.174,14.174-13.78,13.78-13.78,13.78H204.97v4.154s-.026,13.728-13.662,13.662c-13.655-.059-14.259-13.649-14.259-15.926C177.049,300.547,176.97,271.78,176.97,271.78Z"
          transform="translate(-158.774 -252.035)" fill="#fff" opacity="0.8"/>
    <path id="Path_348"
          d="M195.436,290.349H163.414s-14.174.263-14.174-14.174,13.78-13.78,13.78-13.78h4.416v-4.154s.026-13.662,13.662-13.662,14.22,14.22,14.22,14.22Z"
          transform="translate(-149.24 -242.684)" fill="#fff" opacity="0.7"/>
    <path id="Path_349" d="M205.006,271.78H177.091v27.914a26.774,26.774,0,0,0,.636,6.969l6.5-6.969h20.775V271.78Z"
          transform="translate(-158.81 -252.035)" fill="#fff"/>
    <g id="Group_138" transform="translate(80.049 0)">
        <path id="Path_350"
              d="M303.023,298.981s-4.082,4.252-13.091,4.252c-11.647,0-18.7-7.907-18.7-18.787,0-10.794,6.883-18.787,17.343-18.787,10.368,0,16.234,7.4,16.234,17.77,0,.768-.085,2.211-.085,2.211H279.386c.512,7.225,4.757,10.794,11.05,10.794a15.356,15.356,0,0,0,9.607-3.143Zm-23.295-18.872h16.746c-.6-5.184-3.4-7.992-8.078-7.992C283.809,272.117,280.666,274.755,279.728,280.109Z"
              transform="translate(-271.23 -249.931)" fill="#fff"/>
        <path id="Path_351"
              d="M332.353,266.5h5.44l1.017,5.1h.512c2.638-3.911,5.952-5.952,11.818-5.952s10.2,2.382,12.665,6.464h.427c2.382-3.911,5.866-6.464,12.238-6.464,9.265,0,14.62,6.464,14.62,16.064V302.2h-8.334V282.481c0-5.44-2.809-9.692-8.334-9.692-5.61,0-8.248,4.167-8.5,8.078v21.339H357.59V281.635c0-5.013-2.973-8.839-8.419-8.839-5.7,0-8.248,4.337-8.5,8.078v21.339H332.34V266.5Z"
              transform="translate(-292.24 -249.928)" fill="#fff"/>
        <path id="Path_352"
              d="M443.194,298.04v17.428H434.86V266.5h5.525l1.188,5.1h.512s3.229-5.952,12.494-5.952c9.351,0,16.575,7.31,16.575,18.7,0,11.136-7.139,18.7-16.319,18.7-8.839,0-11.306-5.013-11.306-5.013Zm9.607-1.87c5.781,0,9.948-4.843,9.948-11.818,0-6.883-4.167-11.818-9.948-11.818-5.61,0-10.033,4.508-10.033,11.818C442.767,291.747,447.19,296.17,452.8,296.17Z"
              transform="translate(-327.487 -249.928)" fill="#fff"/>
        <path id="Path_353" d="M500.63,242.98h8.334v51.432H500.63Z" transform="translate(-350.099 -242.134)"
              fill="#fff"/>
        <path id="Path_354"
              d="M525.25,246.7a5.143,5.143,0,1,1,5.1,5.013A4.986,4.986,0,0,1,525.25,246.7Zm.938,11.562h8.334v35.7h-8.334Z"
              transform="translate(-358.564 -241.69)" fill="#fff"/>
        <path id="Path_355"
              d="M552,258.4v-3.058c0-8.248,4.672-13.262,12.92-13.262a17.921,17.921,0,0,1,8.078,1.7l-2.638,6.293a11.2,11.2,0,0,0-4.593-.932c-3.314,0-5.44,2.211-5.44,5.781v3.484h9.948v6.549h-9.941V294.11H552V258.4Z"
              transform="translate(-367.761 -241.824)" fill="#fff"/>
        <path id="Path_356"
              d="M588.28,246.7a5.143,5.143,0,1,1,5.1,5.013A4.986,4.986,0,0,1,588.28,246.7Zm.938,11.562h8.334v35.7h-8.334Z"
              transform="translate(-380.234 -241.69)" fill="#fff"/>
    </g>
</svg>
