<svg xmlns="http://www.w3.org/2000/svg" width="108.269" height="73.084" viewBox="0 0 108.269 73.084">
  <path id="Icon_zocial-email" d="M.072,70.679V10.541q0-.1.313-1.984L35.779,38.835.49,72.767a8.848,8.848,0,0,1-.418-2.088Zm4.7-66.3a4.5,4.5,0,0,1,1.775-.313h95.323a5.912,5.912,0,0,1,1.879.313l-35.5,30.382-4.7,3.759-9.292,7.622-9.292-7.622-4.7-3.759Zm.1,72.458L40.477,42.7,54.259,53.87,68.04,42.7l35.6,34.141a5.013,5.013,0,0,1-1.775.313H6.545a4.729,4.729,0,0,1-1.67-.313Zm67.864-38L108.028,8.557a6.232,6.232,0,0,1,.313,1.984V70.679a8,8,0,0,1-.313,2.088Z" transform="translate(-0.072 -4.068)" fill="#fff"/>
</svg>
