<svg xmlns="http://www.w3.org/2000/svg" width="102.375" height="91" viewBox="0 0 102.375 91">
  <path id="Icon_awesome-exclamation-triangle" d="M101.223,78.205A8.536,8.536,0,0,1,93.833,91H8.541a8.536,8.536,0,0,1-7.39-12.795L43.8,4.263a8.536,8.536,0,0,1,14.779,0ZM51.188,62.918a8.176,8.176,0,1,0,8.176,8.176A8.176,8.176,0,0,0,51.188,62.918ZM43.425,33.53,44.744,57.7a2.133,2.133,0,0,0,2.13,2.017H55.5a2.133,2.133,0,0,0,2.13-2.017L58.95,33.53a2.133,2.133,0,0,0-2.13-2.249H45.555a2.133,2.133,0,0,0-2.129,2.249Z" fill="#fff"/>
</svg>
