<svg xmlns="http://www.w3.org/2000/svg" width="75" height="75" viewBox="0 0 75 75">
  <g transform="translate(-48 -48)">
    <path d="M85.5,55.572a29.915,29.915,0,1,1-21.166,8.762A29.8,29.8,0,0,1,85.5,55.572M85.5,48A37.5,37.5,0,1,0,123,85.5,37.494,37.494,0,0,0,85.5,48Z" fill="#ccc"/>
    <path d="M187.894,182.872l-5.022,5.022-12.925-12.925-12.925,12.925L152,182.872l12.925-12.925L152,157.022,157.022,152l12.925,12.925L182.872,152l5.022,5.022-12.925,12.925Z" transform="translate(-84.447 -84.447)" fill="#ccc"/>
  </g>
</svg>
