<svg xmlns="http://www.w3.org/2000/svg" width="40" height="39.991" viewBox="0 0 40 39.991">
  <path id="Icon_awesome-instagram" d="M20,11.98A10.253,10.253,0,1,0,30.252,22.233,10.237,10.237,0,0,0,20,11.98ZM20,28.9a6.666,6.666,0,1,1,6.666-6.666A6.678,6.678,0,0,1,20,28.9ZM33.063,11.561a2.392,2.392,0,1,1-2.392-2.392A2.386,2.386,0,0,1,33.063,11.561Zm6.791,2.427c-.152-3.2-.883-6.041-3.23-8.379s-5.176-3.07-8.379-3.23c-3.3-.187-13.2-.187-16.5,0C8.55,2.53,5.713,3.262,3.366,5.6S.3,10.775.135,13.979c-.187,3.3-.187,13.2,0,16.5.152,3.2.883,6.041,3.23,8.379s5.176,3.07,8.379,3.23c3.3.187,13.2.187,16.5,0,3.2-.152,6.041-.883,8.379-3.23s3.07-5.176,3.23-8.379c.187-3.3.187-13.189,0-16.491ZM35.589,34.021a6.749,6.749,0,0,1-3.8,3.8c-2.632,1.044-8.879.8-11.788.8s-9.165.232-11.788-.8a6.749,6.749,0,0,1-3.8-3.8c-1.044-2.632-.8-8.879-.8-11.788s-.232-9.165.8-11.788a6.749,6.749,0,0,1,3.8-3.8c2.632-1.044,8.879-.8,11.788-.8s9.165-.232,11.788.8a6.749,6.749,0,0,1,3.8,3.8c1.044,2.632.8,8.879.8,11.788S36.633,31.4,35.589,34.021Z" transform="translate(0.005 -2.238)" fill="#fff"/>
</svg>
