<svg xmlns="http://www.w3.org/2000/svg" width="40" height="40" viewBox="0 0 40 40">
  <path id="Icon_awesome-twitter-square" d="M35.714,2.25H4.286A4.287,4.287,0,0,0,0,6.536V37.964A4.287,4.287,0,0,0,4.286,42.25H35.714A4.287,4.287,0,0,0,40,37.964V6.536A4.287,4.287,0,0,0,35.714,2.25ZM31.348,16.429c.018.25.018.509.018.759,0,7.741-5.893,16.661-16.661,16.661a16.584,16.584,0,0,1-8.991-2.625,12.337,12.337,0,0,0,1.411.071,11.741,11.741,0,0,0,7.268-2.5A5.864,5.864,0,0,1,8.92,24.732a6.311,6.311,0,0,0,2.643-.107,5.856,5.856,0,0,1-4.687-5.75V18.8a5.852,5.852,0,0,0,2.643.741A5.843,5.843,0,0,1,6.911,14.67a5.783,5.783,0,0,1,.795-2.955,16.627,16.627,0,0,0,12.071,6.125,5.868,5.868,0,0,1,9.991-5.348,11.475,11.475,0,0,0,3.714-1.411A5.841,5.841,0,0,1,30.911,14.3a11.653,11.653,0,0,0,3.375-.911A12.326,12.326,0,0,1,31.348,16.429Z" transform="translate(0 -2.25)" fill="#fff"/>
</svg>
