<svg xmlns="http://www.w3.org/2000/svg" xmlns:xlink="http://www.w3.org/1999/xlink" width="695.637" height="647.69" viewBox="0 0 695.637 647.69">
  <defs>
    <linearGradient id="linear-gradient" x1="-0.62" y1="0.5" x2="1.62" y2="0.5" gradientUnits="objectBoundingBox">
      <stop offset="0" stop-color="#24abe2"/>
      <stop offset="1" stop-color="#485daa"/>
    </linearGradient>
    <linearGradient id="linear-gradient-2" y1="0.5" x2="1" y2="0.5" gradientUnits="objectBoundingBox">
      <stop offset="0.001" stop-color="#485daa" stop-opacity="0.6"/>
      <stop offset="1" stop-color="#24abe2"/>
    </linearGradient>
    <linearGradient id="linear-gradient-3" y1="0.5" x2="1" y2="0.5" gradientUnits="objectBoundingBox">
      <stop offset="0" stop-color="#65bbe9"/>
      <stop offset="0.142" stop-color="#65bbe9"/>
      <stop offset="0.83" stop-color="#585eaa"/>
      <stop offset="1" stop-color="#585eaa"/>
    </linearGradient>
    <linearGradient id="linear-gradient-4" y1="0.5" x2="1" y2="0.5" gradientUnits="objectBoundingBox">
      <stop offset="0" stop-color="#99d4c0"/>
      <stop offset="0.769" stop-color="#069"/>
      <stop offset="1" stop-color="#069"/>
    </linearGradient>
    <linearGradient id="linear-gradient-5" x1="7.677" y1="-2.591" x2="7.677" y2="-1.591" xlink:href="#linear-gradient-2"/>
    <linearGradient id="linear-gradient-6" x1="6.515" y1="-5.088" x2="6.515" y2="-6.088" gradientUnits="objectBoundingBox">
      <stop offset="0.001" stop-color="#485daa" stop-opacity="0.6"/>
      <stop offset="1" stop-color="#485daa"/>
    </linearGradient>
    <linearGradient id="linear-gradient-7" y1="0.5" x2="1" y2="0.5" gradientUnits="objectBoundingBox">
      <stop offset="0" stop-color="#585ea9"/>
      <stop offset="1" stop-color="#65bae8"/>
    </linearGradient>
    <linearGradient id="linear-gradient-8" x1="1" y1="0.5" x2="0" y2="0.5" gradientUnits="objectBoundingBox">
      <stop offset="0.01" stop-color="#98d1bd"/>
      <stop offset="1" stop-color="#03699b"/>
    </linearGradient>
  </defs>
  <g id="Group_365" transform="translate(12681 -12473.31)">
    <rect id="Rectangle_100" width="99.862" height="223.755" rx="49.931" transform="translate(-12229.832 12782.525) rotate(-90)" fill="url(#linear-gradient)" style="mix-blend-mode: screen;isolation: isolate"/>
    <path id="Path_1557" d="M1173.457,504.091h0a4.553,4.553,0,0,1,6.422,0l.663.662.662-.662a4.553,4.553,0,0,1,6.422,0h0a4.554,4.554,0,0,1,0,6.422l-.662.662-6.422,6.422-6.422-6.422h0l-.663-.662A4.554,4.554,0,0,1,1173.457,504.091Z" transform="translate(-13289.551 12491)" fill="none" stroke="#fff" stroke-width="1"/>
    <path id="Path_1558" d="M1165.519,142.338a1,1,0,0,1-1-1v-5.177c0-3.86-3.364-4.67-6.186-4.67h-9.14c-3.884,0-5.853,1.572-5.853,4.67v5.177a1,1,0,1,1-2,0v-5.177a5.971,5.971,0,0,1,3.656-5.907v-.018c0-3.86-3.364-4.67-6.187-4.67h-9.14c-3.883,0-5.852,1.571-5.852,4.67v5.177a1,1,0,1,1-2,0v-5.177c0-4.239,2.862-6.67,7.852-6.67h9.14c4.892,0,7.9,2.271,8.168,6.107a12.806,12.806,0,0,1,2.216-.182h9.14c5.126,0,8.186,2.494,8.186,6.67v5.177A1,1,0,0,1,1165.519,142.338Zm-11.59-15.367a6.411,6.411,0,0,1-6.361-6.445v-2.017a6.363,6.363,0,1,1,12.724,0v2.017A6.411,6.411,0,0,1,1153.929,126.971Zm0-12.9a4.407,4.407,0,0,0-4.361,4.443v2.017a4.363,4.363,0,1,0,8.724,0v-2.017A4.408,4.408,0,0,0,1153.929,114.066Zm-19.523,6.98a6.411,6.411,0,0,1-6.362-6.445v-2.017a6.363,6.363,0,1,1,12.725,0V114.6A6.412,6.412,0,0,1,1134.406,121.046Zm0-12.9a4.408,4.408,0,0,0-4.362,4.443V114.6a4.363,4.363,0,1,0,8.725,0v-2.017A4.408,4.408,0,0,0,1134.406,108.141Z" transform="translate(-13289.551 12491)" fill="url(#linear-gradient-2)" style="mix-blend-mode: screen;isolation: isolate"/>
    <path id="Path_1559" d="M1034.568-17.69h0C940.482-17.69,863.5,59.29,863.5,153.375v35.291h-35.29c-94.086,0-171.065,76.979-171.065,171.065h0c0,94.085,76.979,171.065,171.065,171.065h377.421V188.666h0V153.375C1205.633,59.29,1128.654-17.69,1034.568-17.69Z" transform="translate(-13289.551 12491)" fill="url(#linear-gradient-3)"/>
    <g id="Group_362" transform="translate(-13289.551 12491)">
      <line id="Line_3" y2="14.776" transform="translate(801.992 237.794)" fill="none" stroke="#accfe6" stroke-linecap="round" stroke-linejoin="round" stroke-width="2.307"/>
      <line id="Line_4" x1="14.776" transform="translate(794.604 245.182)" fill="none" stroke="#accfe6" stroke-linecap="round" stroke-linejoin="round" stroke-width="2.307"/>
    </g>
    <path id="Path_1560" d="M825.1,334.049H813.782V322.735a55.006,55.006,0,0,0-54.845-54.845h-.122a55.006,55.006,0,0,0-54.845,54.845v11.314H692.655a55.006,55.006,0,0,0-54.844,54.845h0a55.006,55.006,0,0,0,54.844,54.845H825.1a55.007,55.007,0,0,0,54.845-54.845h0A55.006,55.006,0,0,0,825.1,334.049Z" transform="translate(-13289.551 12491)" fill="url(#linear-gradient-4)"/>
    <rect id="Rectangle_101" width="82.787" height="185.496" rx="41.394" transform="translate(-12681 12982.5) rotate(-90)" opacity="0.442" fill="url(#linear-gradient-5)" style="mix-blend-mode: screen;isolation: isolate"/>
    <rect id="Rectangle_102" width="73.014" height="161.091" rx="36.507" transform="translate(-12369.775 13082.684) rotate(-90)" opacity="0.28" fill="url(#linear-gradient-6)"/>
    <path id="Path_1561" d="M827.528,158.874l-11.737-11.736a8.054,8.054,0,0,1,0-11.375h0a8.05,8.05,0,0,1,11.374,0l.363.362.361-.362a8.043,8.043,0,0,1,11.374,11.375Zm-10.391-21.765a6.148,6.148,0,0,0,0,8.683l10.391,10.391,10.389-10.391a6.139,6.139,0,0,0-8.682-8.683l-1.707,1.708-1.708-1.708a6.145,6.145,0,0,0-8.683,0Z" transform="translate(-13289.551 12491)" fill="url(#linear-gradient-7)"/>
    <g id="Group_363" transform="translate(-13289.551 12491)">
      <path id="Path_49" d="M762.845,576a1.317,1.317,0,0,1-1.316-1.316v-30.07a1.316,1.316,0,0,1,2.632,0v30.07A1.316,1.316,0,0,1,762.845,576Z" fill="#65bae8"/>
      <path id="Path_50" d="M777.88,560.965H747.811a1.317,1.317,0,0,1,0-2.633H777.88a1.317,1.317,0,0,1,0,2.633Z" fill="#65bae8"/>
    </g>
    <g id="Group_364" transform="translate(-13289.551 12491)">
      <path id="Path_55" d="M971.688,72.089a1.317,1.317,0,0,1-1.316-1.317V40.7a1.316,1.316,0,0,1,2.632,0V70.772A1.317,1.317,0,0,1,971.688,72.089Z" fill="#65bae8"/>
      <path id="Path_56" d="M986.723,57.055H956.654a1.316,1.316,0,0,1,0-2.633h30.069a1.316,1.316,0,0,1,0,2.633Z" fill="#65bae8"/>
    </g>
    <path id="Path_1562" d="M1238.087,465.331H1224.45V451.694a66.3,66.3,0,0,0-66.1-66.1h-.148a66.3,66.3,0,0,0-66.1,66.1v13.637h-13.636a66.3,66.3,0,0,0-66.1,66.1h0a66.3,66.3,0,0,0,66.1,66.1h159.623a66.3,66.3,0,0,0,66.1-66.1h0A66.3,66.3,0,0,0,1238.087,465.331Z" transform="translate(-13289.551 12523.467)" opacity="0.28" fill="url(#linear-gradient-8)"/>
  </g>
</svg>
