<svg xmlns:i="http://ns.adobe.com/AdobeIllustrator/10.0/" xmlns="http://www.w3.org/2000/svg" version="1.1" id="Layer_1" x="0px" y="0px" style="enable-background:new 0 0 792 612;" xml:space="preserve" viewBox="168.28 253.79 94.56 94.56">
<style type="text/css">
	.st0{fill:#49C7ED;}
	.st1{fill:#485DAA;}
	.st2{fill:#003A5D;}
	.st3{fill:#454647;}
</style>
	<g i:extraneous="self">
		<path class="st0" d="M189.71,279.64c-11.79,0-21.43,9.64-21.43,21.43v0c0,11.79,9.64,21.43,21.43,21.43h4.42v-42.86H189.71z"/>
        <path class="st1" d="M241.41,279.64h-4.42v42.86h4.42c11.79,0,21.43-9.64,21.43-21.43v0C262.84,289.28,253.2,279.64,241.41,279.64    z"/>
        <path class="st0" d="M236.99,275.22c0-11.79-9.64-21.43-21.43-21.43h0c-11.79,0-21.43,9.64-21.43,21.43v4.42h42.86V275.22z"/>
        <path class="st1" d="M194.79,332.07c2.33,9.31,10.76,16.28,20.77,16.28h0c11.79,0,21.43-9.64,21.43-21.43v-4.42h-32.63    L194.79,332.07z"/>
        <path class="st2" d="M194.13,279.64v42.86v4.42c0,1.78,0.24,3.5,0.66,5.15l9.57-9.57h32.63v-42.86H194.13z"/>
	</g>
</svg>